<svg width="1120" height="341" viewBox="0 0 1120 341" fill="none" xmlns="http://www.w3.org/2000/svg">
<g clip-path="url(#clip0_516_45274)">
<path fill-rule="evenodd" clip-rule="evenodd" d="M753.902 8.52897C753.795 9.8672 753.545 12.0976 753.349 13.3645C753.102 14.8423 752.738 16.2982 752.26 17.7182C751.831 18.904 751.299 20.0502 750.672 21.1441C749.924 22.2587 749.056 23.2879 748.084 24.213C747.108 25.1124 746.022 25.8857 744.854 26.5149C744.015 26.9074 742.676 27.4606 741.873 27.7282C741.19 27.9514 740.483 28.0951 739.767 28.1564C739.16 28.1564 739.143 28.1564 739.143 30.4047V32.6351H747.317L747.424 49.5682C747.424 63.575 747.602 66.8582 747.959 68.5354C748.173 69.6417 748.548 71.1584 748.78 71.9078C749.127 72.9777 749.55 74.0212 750.047 75.0304C750.768 76.349 751.682 77.5519 752.76 78.599C753.81 79.7241 755.056 80.6491 756.437 81.3289C757.802 81.9104 759.218 82.3644 760.666 82.685C761.989 82.9548 763.333 83.11 764.682 83.149C765.659 83.1294 766.633 83.0219 767.591 82.8278C768.894 82.5245 768.947 82.4709 772.124 78.3134C773.909 75.9938 775.319 74.0668 775.283 74.0312C774.677 74.1405 774.081 74.2954 773.499 74.495C772.394 74.8089 771.255 74.9829 770.107 75.0125C768.039 75.0091 765.996 74.5459 764.129 73.6564C763.347 73.2112 762.627 72.6654 761.987 72.0327C761.275 71.2701 760.675 70.4111 760.202 69.4811C759.734 68.3964 759.358 67.2743 759.078 66.1267C758.703 64.4851 758.65 62.0941 758.65 48.2835V32.4031L765.075 32.528C771 32.6351 771.589 32.6886 772.802 33.2239C773.488 33.5345 774.135 33.9237 774.73 34.3837L775.319 34.9368V29.334C775.319 24.0881 775.319 23.7313 774.855 23.9811C774.228 24.1593 773.59 24.2965 772.945 24.3915C772.142 24.5343 768.59 24.6414 765.075 24.6414H758.65V6.03088H754.045L753.902 8.52897Z" fill="#006837"/>
<path fill-rule="evenodd" clip-rule="evenodd" d="M1034.44 6.61981C1034.44 6.94098 1034.32 8.58255 1034.16 10.1884C1034 11.7943 1033.69 13.9891 1033.48 14.9348C1033.26 15.8805 1032.85 17.2364 1032.59 17.968C1032.26 18.8148 1031.89 19.6428 1031.48 20.4482C1030.89 21.438 1030.2 22.3596 1029.41 23.196C1028.5 24.1614 1027.5 25.0287 1026.41 25.7833C1025.28 26.4558 1024.08 27.0118 1022.84 27.4427C1021.99 27.7514 1021.11 27.9784 1020.22 28.1208C1019.65 28.1208 1019.61 28.1208 1019.61 30.3512V32.5815H1023.79L1027.95 32.6709L1028.11 50.514C1028.25 67.7861 1028.27 68.3571 1028.82 70.409C1029.27 71.9017 1029.84 73.3572 1030.52 74.7627C1031.2 76.2516 1032.16 77.5961 1033.35 78.724C1034.4 79.7771 1035.6 80.6565 1036.92 81.329C1038.28 81.9274 1039.7 82.3877 1041.15 82.703C1042.48 82.9775 1043.82 83.1387 1045.17 83.1848C1046.15 83.174 1047.12 83.0663 1048.08 82.8635C1049.38 82.5245 1049.47 82.4174 1052.61 78.3135C1054.4 75.9939 1055.81 74.0847 1055.77 74.049C1055.19 74.1606 1054.63 74.3157 1054.07 74.5129C1052.95 74.8369 1051.8 75.011 1050.63 75.0304C1049.43 74.9957 1048.23 74.828 1047.06 74.5308C1045.94 74.2012 1044.86 73.721 1043.87 73.1033C1043 72.5142 1042.24 71.7773 1041.63 70.9264C1041.09 70.084 1040.63 69.1871 1040.26 68.25C1039.9 67.2118 1039.63 66.1428 1039.46 65.0561C1039.31 64.0925 1039.21 56.3665 1039.21 47.9089V32.5102L1045.61 32.6351C1051.56 32.7422 1052.13 32.7957 1053.4 33.3488C1054.04 33.6229 1054.65 33.9962 1055.18 34.4552C1055.36 34.6791 1055.59 34.8515 1055.86 34.9547C1056.08 33.1075 1056.15 31.2461 1056.07 29.3877V23.8206L1055.48 23.999C1055.16 23.999 1054.18 24.2845 1053.31 24.4272C1052.43 24.57 1048.92 24.6593 1045.49 24.6236H1039.28V15.3451V6.04881H1036.91C1034.53 6.03097 1034.44 6.04883 1034.44 6.61981Z" fill="#006837"/>
<path fill-rule="evenodd" clip-rule="evenodd" d="M479.948 36.2572C479.774 34.2207 479.488 32.1955 479.091 30.1906C478.787 28.9416 478.234 26.9966 477.859 25.8725C477.346 24.4588 476.75 23.0767 476.075 21.733C475.308 20.2375 474.462 18.7841 473.54 17.3792C472.287 15.6357 470.896 13.9949 469.382 12.4724C467.78 10.9041 466.055 9.46609 464.224 8.17211C462.85 7.26211 460.797 6.04876 459.655 5.47778C458.513 4.9068 456.496 4.03255 455.14 3.53294C453.784 3.03333 451.57 2.31958 450.053 1.94487C448.536 1.57017 445.788 1.01703 443.825 0.713692C440.505 0.196241 438.97 0.142703 421.926 0.0356445C410.129 0.0356445 403.597 0.035675 403.597 0.17842C403.597 0.321165 403.883 0.499562 404.204 0.588777C404.86 0.839807 405.465 1.20866 405.989 1.67718C406.719 2.33565 407.324 3.12176 407.773 3.99688C408.207 4.99048 408.542 6.0244 408.773 7.08371C409.058 8.45763 409.13 14.9347 409.13 40.3076C409.13 65.6806 409.13 72.1397 408.791 73.5137C408.521 74.6586 408.145 75.7757 407.666 76.8503C407.083 78.0235 406.277 79.072 405.293 79.9373C404.712 80.4262 404.18 80.9699 403.704 81.5609C403.704 81.6502 411.664 81.668 421.373 81.5609C435.847 81.4717 439.541 81.3825 441.826 81.0257C443.343 80.7937 445.395 80.4368 446.448 80.2048C447.501 79.9729 449.072 79.5803 450.018 79.2948C450.964 79.0093 452.748 78.4205 453.962 77.9566C455.176 77.4927 457.157 76.6363 458.335 76.0475C459.512 75.4586 461.493 74.2631 462.761 73.4245C464.202 72.4527 465.59 71.4044 466.919 70.2841C468.181 69.1685 469.373 67.9768 470.489 66.7154C471.434 65.6092 472.809 63.807 473.54 62.7365C474.447 61.3354 475.27 59.8816 476.003 58.3827C476.628 57.0802 477.449 55.1353 477.788 54.0647C478.127 52.9941 478.716 51.0492 479.02 49.711C479.407 47.7172 479.687 45.7039 479.858 43.68C480.121 41.214 480.151 38.7288 479.948 36.2572ZM465.491 48.337C465.241 49.4968 464.795 51.2276 464.492 52.1555C464.041 53.4679 463.504 54.7493 462.886 55.9917C461.62 58.6631 459.878 61.0817 457.746 63.1289C456.61 64.2585 455.386 65.2967 454.087 66.2337C452.894 67.0542 451.654 67.8048 450.375 68.4819C449.357 68.9815 447.787 69.6775 446.805 70.0165C445.824 70.3555 444.11 70.9264 442.843 71.2833C441.002 71.7448 439.137 72.1082 437.257 72.3718C434.668 72.7333 432.05 72.8409 429.44 72.693C427.363 72.655 425.289 72.5001 423.229 72.229L421.587 71.9079V10.3133L422.212 10.1527C422.551 10.1527 424.121 9.77799 425.781 9.51035C428.145 9.16714 430.531 9.0002 432.92 9.01079C435.264 8.97909 437.607 9.1042 439.934 9.38543C441.782 9.66798 443.612 10.0613 445.413 10.5631C447.003 11.0303 448.565 11.5904 450.089 12.2404C451.361 12.832 452.589 13.5116 453.766 14.2744C455.019 15.1433 456.212 16.0972 457.335 17.1294C458.398 18.1606 459.383 19.2699 460.28 20.4482C461.938 22.7526 463.233 25.2982 464.117 27.9958C464.528 29.2448 465.134 31.5644 465.456 33.1346C465.95 35.7748 466.142 38.4628 466.027 41.1463C466.085 43.555 465.906 45.9635 465.491 48.337Z" fill="#006837"/>
<path fill-rule="evenodd" clip-rule="evenodd" d="M574.841 23.4637C574.266 23.7383 573.669 23.9651 573.056 24.1418C570.697 24.5277 568.308 24.7068 565.918 24.677L560.028 24.8198L561.045 25.5336C561.697 26.0686 562.295 26.6662 562.83 27.3179C563.353 27.9961 563.785 28.7399 564.115 29.5304C564.561 30.6545 564.597 32.9028 564.686 65.0026C564.686 90.322 564.686 99.654 564.454 100.689C564.226 101.634 563.891 102.55 563.455 103.419C562.955 104.264 562.315 105.018 561.563 105.649C560.902 106.167 560.242 106.684 560.117 106.809C559.992 106.934 564.525 107.023 570.236 107.023H580.606L578.821 105.239C577.743 104.365 576.938 103.201 576.501 101.884C576.019 100.35 575.983 99.2613 575.983 72.6215C575.983 46.8739 575.983 44.8041 576.465 43.2339C576.738 42.238 577.09 41.2654 577.518 40.3255C578.284 39.1178 579.188 38.004 580.213 37.0067C581.377 35.7891 582.719 34.7543 584.193 33.9376C585.391 33.341 586.632 32.8341 587.905 32.421C589.294 32.0394 590.716 31.7944 592.153 31.6894C593.565 31.6116 594.981 31.6654 596.383 31.85C597.56 32.0618 598.722 32.3478 599.863 32.7064C601.113 33.1714 602.31 33.7696 603.432 34.4908C604.605 35.2878 605.694 36.2026 606.68 37.2208C607.481 38.1425 608.215 39.1203 608.876 40.147C609.482 41.193 610.018 42.2779 610.482 43.3945C610.97 44.6289 611.381 45.8922 611.713 47.1772C612.193 49.3853 612.367 51.6487 612.231 53.9041C612.359 56.1527 612.191 58.4083 611.731 60.6131C611.345 62.0118 610.85 63.378 610.25 64.6992C609.619 66.0121 608.873 67.2662 608.019 68.4463C607.174 69.5168 606.204 70.4813 605.128 71.319C604.285 71.9934 603.383 72.5906 602.433 73.1033C601.844 73.371 600.916 73.7814 600.363 73.9955C599.339 74.3477 598.289 74.6162 597.221 74.7985C595.724 75.0573 594.208 75.1945 592.688 75.2088C591.212 75.1922 589.738 75.0669 588.28 74.8341C586.937 74.5562 585.609 74.2108 584.3 73.7992C583.194 73.4245 581.605 72.8357 580.731 72.461L579.178 71.783L579.642 72.5145L582.908 77.4928C585.674 81.6859 585.728 81.7394 587.049 82.1498C588.258 82.4913 589.485 82.7653 590.725 82.9705C592.111 83.2093 593.513 83.3466 594.919 83.381C596.437 83.3408 597.952 83.2036 599.452 82.9705C601.072 82.7078 602.675 82.3503 604.253 81.9C605.653 81.4348 607.024 80.8867 608.358 80.2585C609.447 79.7232 611.053 78.8131 611.928 78.2422C613.344 77.2084 614.675 76.0628 615.907 74.8163C617.283 73.4466 618.537 71.9599 619.655 70.3733C620.576 68.9221 621.393 67.4077 622.1 65.8412C622.807 64.1569 623.403 62.4284 623.885 60.6666C624.563 58.115 624.599 57.5976 624.599 52.5301C624.784 49.9685 624.579 47.3937 623.992 44.8933C623.653 43.6622 623.153 42.0206 622.886 41.3247C622.485 40.2914 622.032 39.2789 621.529 38.2914C620.935 37.1299 620.273 36.0039 619.548 34.919C618.728 33.7409 617.822 32.6256 616.836 31.5823C615.837 30.5838 614.782 29.6427 613.677 28.7632C612.541 27.9255 611.348 27.1682 610.107 26.4971C608.953 25.886 607.761 25.3496 606.538 24.8911C605.681 24.6057 603.932 24.1239 602.665 23.8385C600.639 23.429 598.573 23.2552 596.508 23.3209C594.423 23.2525 592.338 23.4322 590.297 23.8563C588.764 24.2101 587.251 24.6448 585.764 25.1588C584.539 25.6209 583.347 26.1632 582.194 26.7825C581.165 27.3802 580.169 28.0356 579.214 28.7453C578.398 29.3793 577.628 30.071 576.911 30.8151C576.634 31.1723 576.31 31.4905 575.948 31.7608C575.81 30.3617 575.762 28.955 575.805 27.5498C575.87 26.143 575.804 24.7334 575.609 23.3388C575.347 23.3316 575.087 23.374 574.841 23.4637Z" fill="#006837"/>
<path fill-rule="evenodd" clip-rule="evenodd" d="M651.477 23.535L649.157 23.8206L645.177 29.9407L641.09 36.0252L642.197 35.5078C642.803 35.2045 644.249 34.5621 645.409 34.0625C646.569 33.5629 648.211 32.9384 648.979 32.6529C649.746 32.3674 651.245 31.957 652.155 31.7429C653.488 31.4794 654.835 31.2947 656.189 31.1898C657.642 31.0993 659.1 31.1471 660.544 31.3326C661.822 31.5515 663.077 31.892 664.292 32.3495C665.379 32.8041 666.4 33.4044 667.326 34.1338C668.071 34.7999 668.677 35.6064 669.11 36.507C669.509 37.3374 669.722 38.2446 669.735 39.1656C669.718 39.985 669.555 40.7948 669.253 41.5566C668.819 42.3494 668.251 43.0616 667.575 43.6621C666.553 44.4743 665.4 45.1077 664.167 45.5356C662.997 45.9728 661.806 46.3481 660.597 46.6597L653.994 48.0158C651.049 48.5868 647.444 49.4076 645.962 49.8002C644.389 50.264 642.845 50.8241 641.34 51.4774C640.086 52.0576 638.891 52.7567 637.77 53.565C636.819 54.307 635.951 55.1507 635.183 56.081C634.532 56.9821 633.981 57.9513 633.541 58.9716C633.102 60.2229 632.786 61.5135 632.595 62.8256C632.327 64.3005 632.327 65.8115 632.595 67.2864C632.833 68.6979 633.203 70.0839 633.701 71.426C634.238 72.7302 634.92 73.9693 635.736 75.1196C636.548 76.1822 637.456 77.1677 638.449 78.0636C640.172 79.5661 642.156 80.7394 644.303 81.5252C645.463 81.9817 646.657 82.3515 647.872 82.6316C648.925 82.8457 650.781 83.0954 652.013 83.2025C653.698 83.2977 655.389 83.238 657.063 83.0241C659.526 82.7207 659.955 82.5958 660.472 81.9891C660.99 81.3825 662.453 79.5982 664.042 77.4927C665.63 75.3873 667.058 73.6385 667.022 73.6028C666.554 73.6609 666.093 73.7687 665.648 73.9241C664.934 74.1382 663.381 74.4951 662.221 74.7092C660.861 74.9589 659.482 75.0961 658.099 75.1196C656.758 75.0938 655.422 74.9685 654.101 74.7448C652.83 74.4744 651.587 74.0862 650.388 73.5851C649.317 73.0787 648.33 72.4106 647.462 71.6044C646.773 70.9406 646.174 70.191 645.677 69.374C645.287 68.5043 645.017 67.5861 644.874 66.6441C644.678 65.5345 644.678 64.3991 644.874 63.2896C645.009 62.3787 645.267 61.4904 645.641 60.6488C646.05 59.9517 646.555 59.3151 647.14 58.7575C647.7 58.2445 648.296 57.7733 648.925 57.3478C649.72 56.9229 650.543 56.5533 651.388 56.2415C652.316 55.9025 654.832 55.1888 656.974 54.6892C659.116 54.1896 661.954 53.4402 663.256 53.0655C664.559 52.6908 666.433 52.0306 667.415 51.6202C668.396 51.2098 669.199 50.8707 669.342 50.8707C669.485 50.8707 669.485 55.6527 669.485 61.4874C669.485 70.9443 669.485 72.3182 669.967 73.9776C670.367 75.7438 671.244 77.3667 672.501 78.6703C673.059 79.2076 673.655 79.7026 674.286 80.1514C675.211 80.751 676.198 81.2475 677.231 81.6323C678.463 82.0758 679.728 82.4219 681.014 82.6672C682.121 82.8635 683.62 83.0954 684.352 83.2025L685.69 83.3631L688.385 79.3305L691.08 75.2801L688.849 74.834C687.582 74.5805 686.344 74.198 685.155 73.6922C684.263 73.2452 683.459 72.6407 682.781 71.9078C682.213 71.2155 681.744 70.4466 681.389 69.6239C680.979 68.5176 680.907 66.8403 680.765 53.565C680.622 41.0748 680.532 38.4698 680.158 36.6855C679.788 35.2078 679.28 33.7681 678.641 32.3852C677.985 31.0018 677.098 29.7407 676.017 28.6561C675.035 27.7049 673.945 26.8724 672.769 26.1759C671.732 25.5999 670.652 25.1047 669.539 24.6949C668.126 24.2628 666.69 23.9113 665.237 23.6421C662.83 23.2096 660.382 23.0421 657.938 23.1425C655.886 23.2139 652.744 23.3744 651.477 23.535Z" fill="#006837"/>
<path fill-rule="evenodd" clip-rule="evenodd" d="M712.997 23.7136C711.976 24.1045 710.908 24.3565 709.82 24.463C708.588 24.6236 705.555 24.7484 703.074 24.7663C698.79 24.7663 698.612 24.7663 699.237 25.2124C699.874 25.6721 700.471 26.1855 701.021 26.747C701.746 27.5104 702.316 28.4072 702.699 29.3877C703.27 30.9401 703.27 30.9579 703.27 53.1012C703.27 74.513 703.27 75.3337 702.753 76.6363C702.409 77.4776 701.966 78.2744 701.432 79.0095C700.906 79.6322 700.307 80.1894 699.647 80.6689C699.276 80.8701 698.953 81.1503 698.701 81.4897C698.701 81.5967 703.341 81.6859 709.017 81.6859C714.692 81.6859 719.35 81.6859 719.35 81.4718C719.35 81.2577 719.029 81.0792 718.654 80.883C717.996 80.4089 717.397 79.8578 716.87 79.2414C716.083 78.3804 715.509 77.3479 715.192 76.2259C714.674 74.6022 714.657 73.7993 714.657 60.7738C714.657 53.0478 714.782 46.2137 714.924 45.1788C715.067 44.1439 715.371 42.6273 715.603 41.753C715.855 40.7678 716.177 39.8018 716.566 38.8624C717.058 37.9442 717.657 37.0877 718.351 36.3108C719.028 35.5654 719.809 34.9222 720.671 34.4016C721.538 33.9475 722.447 33.5771 723.384 33.2954C724.821 32.9538 726.298 32.8038 727.774 32.8493C729.112 32.7352 730.458 32.8868 731.736 33.2954C732.279 33.5243 732.789 33.8243 733.253 34.1875C733.717 34.5979 733.735 34.4016 733.664 28.9595V23.321H730.202C728.501 23.1535 726.784 23.2925 725.133 23.7315C723.984 24.1309 722.868 24.6202 721.795 25.1946C720.662 25.8622 719.593 26.6326 718.601 27.4963C717.625 28.4294 716.751 29.4643 715.995 30.5832L714.871 32.3675V27.8354C714.871 24.4452 714.71 23.321 714.478 23.3389C713.969 23.3923 713.47 23.5185 712.997 23.7136Z" fill="#006837"/>
<path fill-rule="evenodd" clip-rule="evenodd" d="M797.235 23.4459C796.676 23.756 796.075 23.9843 795.45 24.1239C793.033 24.5299 790.584 24.7209 788.133 24.6949L782.226 24.8733L783.493 25.8012C784.306 26.4536 785.011 27.2304 785.581 28.1029C786.082 29.0061 786.46 29.9723 786.705 30.9757C786.919 32.0285 787.009 38.6304 786.991 53.0655C786.991 68.6604 786.991 74.0312 786.652 75.2445C786.431 76.2362 786.071 77.1914 785.581 78.0815C785.042 78.9354 784.36 79.6899 783.564 80.3119C783.071 80.634 782.631 81.0315 782.261 81.4896C782.261 81.5967 786.83 81.6859 792.434 81.6859C798.038 81.6859 802.607 81.6858 802.607 81.5253C802.212 81.0257 801.763 80.5711 801.269 80.1693C800.496 79.4747 799.84 78.6615 799.323 77.7604C798.925 76.9283 798.619 76.0547 798.413 75.1553C798.217 74.2275 798.11 69.267 798.128 60.2563C797.971 54.9004 798.096 49.5401 798.502 44.1974C798.687 42.8924 798.95 41.5996 799.288 40.3255C799.589 39.3954 799.959 38.4888 800.394 37.6133C800.919 36.6261 801.567 35.7089 802.322 34.8834C803.074 34.1331 803.913 33.4743 804.82 32.9206C805.707 32.4448 806.632 32.0449 807.587 31.7251C808.73 31.4476 809.894 31.2627 811.067 31.172C813.432 30.8948 815.827 31.3166 817.956 32.3853C819.172 33.0075 820.281 33.8208 821.24 34.7941C822.202 35.7621 823.046 36.8402 823.756 38.0059C824.381 39.2145 824.918 40.4668 825.362 41.7529C825.757 43.0036 826.067 44.2793 826.29 45.5714C826.415 46.5171 826.558 53.5115 826.576 61.1306C826.576 74.4951 826.576 75.0126 826.076 76.4936C825.739 77.4037 825.276 78.2624 824.702 79.0451C824.186 79.6622 823.585 80.2028 822.917 80.651C822.418 80.9543 822.007 81.3112 822.007 81.4539C825.44 81.7048 828.882 81.7822 832.323 81.6859C837.998 81.6859 842.639 81.6859 842.639 81.4718C842.639 81.2577 842.335 81.0792 841.942 80.8829C841.281 80.4132 840.681 79.8617 840.158 79.2414C839.334 78.3905 838.722 77.3574 838.373 76.2259C837.873 74.6022 837.838 73.7992 837.838 60.1671C837.838 48.7118 837.838 45.4107 838.248 43.3945C838.444 42.1033 838.731 40.8275 839.105 39.5761C839.464 38.615 839.9 37.6842 840.408 36.7926C840.966 35.8578 841.644 35 842.424 34.2409C843.052 33.6584 843.74 33.1441 844.477 32.7065C845.227 32.3499 845.995 32.0343 846.779 31.7608C848.045 31.416 849.342 31.2007 850.652 31.1184C852.015 31.0324 853.382 31.0682 854.739 31.2254C855.907 31.4576 857.045 31.8229 858.13 32.314C859.283 32.863 860.333 33.6053 861.235 34.5086C862.171 35.5268 862.963 36.6673 863.591 37.8989C864.205 39.1854 864.707 40.5227 865.09 41.8957C865.376 43.0198 865.733 44.9112 865.893 46.1067C866.054 47.3022 866.161 53.244 866.108 61.9871L866.018 75.6906L865.322 77.1359C864.85 78.0711 864.249 78.9359 863.538 79.7053C863.06 80.2039 862.513 80.6306 861.913 80.9721C861.628 81.0613 861.414 81.2398 861.414 81.3826C861.414 81.5253 865.679 81.6146 872.122 81.6146C878.226 81.6146 882.83 81.6145 882.83 81.3826C882.83 81.1506 882.545 81.0792 882.206 80.99C881.613 80.7649 881.063 80.4389 880.582 80.0265C879.977 79.5578 879.442 79.005 878.993 78.3849C878.629 77.8177 878.312 77.2208 878.047 76.6006C877.762 75.8691 877.655 72.2647 877.512 59.4533C877.369 46.6419 877.262 42.6986 876.941 40.7359C876.709 39.3619 876.352 37.5777 876.138 36.7926C875.924 36.0075 875.602 35.0083 875.424 34.5443C875.245 34.0804 874.924 33.3489 874.692 32.76C874.266 31.9287 873.789 31.1242 873.264 30.3511C871.76 28.1588 869.712 26.3943 867.321 25.2302C866.042 24.6366 864.717 24.1473 863.359 23.767C861.067 23.233 858.715 22.9992 856.363 23.0712C853.975 22.8167 851.562 22.9675 849.224 23.5173C847.889 23.882 846.578 24.3289 845.298 24.8555C844.138 25.4191 843.022 26.0692 841.96 26.8004C840.723 27.7388 839.559 28.7707 838.48 29.8872C837.588 30.7892 836.742 31.7362 835.946 32.7243L835.268 33.5986L834.054 31.9214C833.171 30.7581 832.205 29.6609 831.163 28.6383C830.164 27.6906 829.089 26.8253 827.95 26.051C827.058 25.4988 826.134 24.9983 825.184 24.5521C824.085 24.1286 822.958 23.7828 821.811 23.5173C819.853 23.0971 817.851 22.9232 815.85 22.9998C813.847 22.8999 811.839 23.0862 809.889 23.5529C808.562 23.9212 807.271 24.411 806.034 25.0161C804.832 25.6903 803.701 26.4855 802.661 27.3892C801.571 28.4104 800.568 29.5205 799.662 30.708L798.27 32.5815V27.7817C798.27 24.2131 798.11 22.9998 797.86 22.9998C797.731 23.0293 797.61 23.084 797.503 23.1605C797.396 23.2371 797.305 23.334 797.235 23.4459Z" fill="#006837"/>
<path fill-rule="evenodd" clip-rule="evenodd" d="M968.676 23.4103C967.995 23.6981 967.291 23.9249 966.57 24.0882C964.216 24.5294 961.825 24.7387 959.431 24.7128L953.934 24.8733L955.183 25.8012C955.996 26.4536 956.701 27.2304 957.272 28.1029C957.837 29.097 958.218 30.1852 958.396 31.3148C958.61 32.5995 958.699 39.2906 958.681 53.4046C958.681 69.1957 958.681 74.0133 958.325 75.2802C958.094 76.2687 957.733 77.2226 957.254 78.1173C956.715 78.9553 956.039 79.6971 955.255 80.3119C954.762 80.634 954.322 81.0315 953.952 81.4896C953.952 81.5967 958.574 81.6859 964.25 81.6859C967.69 81.8144 971.135 81.7309 974.565 81.4361C974.565 81.2755 974.565 81.1685 974.351 81.1685C973.864 80.909 973.414 80.5848 973.013 80.2049C972.341 79.6186 971.741 78.9537 971.228 78.2243C970.762 77.3902 970.413 76.4955 970.193 75.5657C969.872 74.2096 969.8 71.1941 969.8 58.8823C969.8 47.1594 969.8 43.3766 970.175 41.6102C970.35 40.4868 970.607 39.3776 970.943 38.2914C971.228 37.5531 971.581 36.8424 971.995 36.168C972.582 35.3407 973.258 34.5807 974.012 33.9019C974.85 33.1678 975.795 32.5661 976.814 32.1176C977.917 31.7586 979.045 31.4784 980.187 31.279C981.656 31.1072 983.137 31.0654 984.613 31.1541C986.897 31.2171 989.136 31.7967 991.163 32.8492C991.947 33.289 992.683 33.8092 993.359 34.4016C994.101 35.1258 994.749 35.9412 995.286 36.8282C995.771 37.6885 996.206 38.5762 996.589 39.4868C996.821 40.147 997.231 41.4496 997.481 42.3953C997.874 43.8941 997.945 46.0709 998.035 59.5604C998.142 74.4594 998.124 75.0661 997.606 76.4936C997.276 77.3943 996.825 78.2465 996.268 79.0273C995.751 79.6437 995.15 80.1842 994.483 80.6331C993.983 80.9364 993.573 81.2933 993.573 81.4361C997.011 81.6935 1000.46 81.7769 1003.91 81.6859C1007.35 81.8144 1010.79 81.7309 1014.22 81.4361C1014.22 81.3651 1014.19 81.297 1014.14 81.2468C1014.09 81.1966 1014.03 81.1685 1013.95 81.1685C1013.29 80.8187 1012.69 80.3671 1012.17 79.8302C1011.34 79.0538 1010.66 78.1427 1010.13 77.1359L1009.51 75.762L1009.35 57.9188C1009.21 42.8414 1009.12 39.6831 1008.76 38.0594C1008.51 36.9109 1008.19 35.7789 1007.8 34.6693C1007.4 33.6973 1006.92 32.7603 1006.37 31.8679C1005.68 30.8808 1004.9 29.966 1004.03 29.1378C1003.13 28.3105 1002.16 27.5586 1001.14 26.8896C1000.16 26.2909 999.15 25.7546 998.106 25.2838C996.729 24.7309 995.316 24.2718 993.876 23.9098C991.822 23.3682 989.698 23.1456 987.576 23.2496C985.781 23.1986 983.986 23.3422 982.222 23.6778C980.998 24.0195 979.804 24.4611 978.652 24.9982C977.299 25.6906 976.015 26.509 974.815 27.4427C973.596 28.4543 972.467 29.5708 971.442 30.7794L969.979 32.5637V27.9067C969.979 24.338 969.818 23.2318 969.586 23.2496C969.274 23.2278 968.962 23.283 968.676 23.4103Z" fill="#006837"/>
<path fill-rule="evenodd" clip-rule="evenodd" d="M549.48 68.8745C549.159 69.1065 547.927 69.8738 546.767 70.5696C545.489 71.3331 544.159 72.0069 542.787 72.5859C541.77 72.9963 540.164 73.5495 539.218 73.8171C537.802 74.1969 536.366 74.4947 534.917 74.7093C533.142 74.9494 531.353 75.0805 529.562 75.1018C527.896 75.089 526.232 74.9637 524.583 74.727C523.405 74.5129 521.745 74.1561 520.871 73.9063C519.647 73.5119 518.454 73.0289 517.301 72.461C516.183 71.9325 515.099 71.3366 514.053 70.6767C512.991 69.8764 511.989 68.9997 511.055 68.0537C509.923 66.8606 508.912 65.5576 508.039 64.1639C507.295 62.8704 506.651 61.5224 506.111 60.1313C505.657 58.7954 505.293 57.4303 505.022 56.0453C504.808 54.8668 504.683 53.6739 504.648 52.4767V51.0849H550.229L550.087 48.1229C550.007 46.4056 549.78 44.6983 549.409 43.0198C549.029 41.6503 548.57 40.3038 548.034 38.9873C547.556 37.8656 547.007 36.775 546.392 35.7219C545.695 34.6288 544.938 33.5745 544.126 32.5637C543.051 31.2644 541.856 30.0695 540.556 28.995C539.054 27.8508 537.453 26.8418 535.773 25.9797C534.105 25.1687 532.374 24.4944 530.598 23.9634C528.009 23.2779 525.328 23.0129 522.655 23.1783C520.138 22.9917 517.608 23.1235 515.124 23.5708C513.946 23.8384 512.286 24.2667 511.412 24.5165C510.198 24.903 509.006 25.3556 507.842 25.8725C506.431 26.5544 505.061 27.317 503.737 28.1565C502.304 29.1242 500.955 30.2105 499.704 31.4039C498.583 32.5155 497.545 33.7083 496.599 34.9726C495.755 36.1946 494.992 37.4701 494.314 38.791C493.632 40.1498 493.036 41.5503 492.529 42.9841C492.092 44.4927 491.734 46.0234 491.459 47.5698C491.19 49.2459 491.047 50.9397 491.03 52.6372C491.055 54.4327 491.228 56.2232 491.548 57.9901C491.905 59.6871 492.382 61.3567 492.976 62.9863C493.498 64.3324 494.094 65.6487 494.76 66.9296C495.575 68.2651 496.475 69.5466 497.455 70.7659C498.549 72.0755 499.742 73.2984 501.025 74.4237C502.164 75.3597 503.355 76.2295 504.594 77.0289C505.54 77.6534 507.093 78.5276 508.021 79.0094C508.949 79.4912 510.502 80.1514 511.43 80.4904C512.358 80.8294 514.196 81.4004 515.534 81.7572C517.512 82.2286 519.514 82.5921 521.531 82.8457C523.897 83.1634 526.287 83.2589 528.67 83.1312C530.633 83.042 533.31 82.7922 534.631 82.5959C535.952 82.3996 537.612 82.0784 538.325 81.9C539.039 81.7216 540.556 81.2933 541.645 80.9186C542.445 80.6968 543.212 80.373 543.929 79.9552C544.09 79.7946 545.464 77.3501 546.963 74.6022C548.463 71.8544 549.801 69.2492 549.908 68.9637C550.015 68.6782 550.051 68.4641 549.48 68.8745ZM505.647 41.4139C506.038 40.3068 506.553 39.2473 507.182 38.2556C507.881 37.2578 508.669 36.326 509.538 35.4721C510.428 34.6457 511.403 33.916 512.447 33.2953C513.506 32.7339 514.611 32.2624 515.749 31.8857C516.615 31.619 517.498 31.4044 518.39 31.2433C519.626 31.173 520.866 31.173 522.102 31.2433C523.607 31.2917 525.106 31.4648 526.582 31.7608C527.718 32.0861 528.828 32.4977 529.901 32.992C530.918 33.5173 531.87 34.1579 532.739 34.9012C533.554 35.7044 534.283 36.5893 534.917 37.542C535.492 38.4586 535.982 39.4262 536.38 40.4326C536.647 41.2462 536.867 42.0742 537.04 42.9128L537.219 44.019H521.156C505.879 44.019 505.094 44.019 505.094 43.5551C505.197 42.8229 505.383 42.1046 505.647 41.4139Z" fill="#006837"/>
<path fill-rule="evenodd" clip-rule="evenodd" d="M944.868 69.9451C943.346 70.9139 941.746 71.7555 940.085 72.461C938.701 73.0254 937.289 73.5196 935.855 73.9419C934.963 74.1739 933.142 74.5307 931.839 74.727C930.064 74.9618 928.276 75.087 926.485 75.1018C924.759 75.092 923.035 74.9609 921.327 74.7093C919.995 74.4711 918.678 74.1553 917.383 73.7635C914.014 72.7399 910.949 70.9013 908.46 68.4106C907.449 67.4507 906.528 66.3994 905.711 65.2702C905.038 64.2266 904.441 63.1353 903.926 62.0049C902.9 59.8439 902.208 57.5397 901.874 55.171C901.721 54.1842 901.625 53.1891 901.588 52.1911V51.1384H924.415H947.242L947.152 48.7653C947.083 47.3054 946.922 45.8513 946.671 44.4115C946.438 43.3231 946.01 41.7351 945.725 40.8429C945.332 39.7625 944.885 38.7026 944.386 37.6669C943.94 36.8104 943.101 35.3829 942.601 34.5086C941.722 33.2822 940.743 32.1304 939.674 31.0649C938.564 29.9916 937.37 29.0071 936.105 28.1208C935.064 27.4252 933.986 26.7878 932.875 26.2115C931.856 25.7011 930.807 25.2542 929.734 24.8733C928.895 24.57 927.163 24.1061 925.896 23.8206C923.63 23.367 921.316 23.1991 919.007 23.3209C916.68 23.242 914.352 23.4216 912.065 23.8563C910.471 24.2027 908.898 24.6375 907.353 25.1588C906.042 25.6137 904.76 26.15 903.516 26.7647C902.695 27.2286 901.356 28.0137 900.553 28.549C899.356 29.3923 898.223 30.3228 897.162 31.3326C896.001 32.4483 894.916 33.6405 893.914 34.9012C892.987 36.2098 892.152 37.581 891.415 39.0051C890.715 40.46 890.119 41.9625 889.631 43.5015C889.274 44.6613 888.828 46.4992 888.631 47.5877C888.404 49.363 888.291 51.1509 888.292 52.9406C888.256 54.8014 888.412 56.6609 888.756 58.4898C889.024 59.6496 889.452 61.2555 889.72 62.0584C890.064 63.0927 890.469 64.1056 890.934 65.0918C891.613 66.3933 892.363 67.6561 893.182 68.8745C894.244 70.4098 895.438 71.8487 896.752 73.1747C898.124 74.5064 899.598 75.7295 901.16 76.8326C902.599 77.7955 904.102 78.6598 905.658 79.4198C906.853 79.9729 908.585 80.6867 909.495 81.0078C910.405 81.329 912.136 81.8108 913.296 82.0962C914.456 82.3817 916.973 82.7922 918.9 83.0241C921.196 83.3172 923.513 83.4068 925.825 83.2918C927.717 83.2026 930.34 82.9527 931.643 82.7564C932.946 82.5602 934.624 82.2391 935.355 82.0606C936.087 81.8822 937.586 81.436 938.728 81.0792C939.692 80.8976 940.577 80.4243 941.263 79.7232C941.531 79.3485 942.494 77.5998 943.404 75.869C944.315 74.1382 945.528 71.8543 946.099 70.8372C946.481 70.1751 946.821 69.4898 947.117 68.7853C946.325 69.085 945.571 69.474 944.868 69.9451ZM902.677 41.5388C903.052 40.5235 903.505 39.539 904.033 38.5947C904.561 37.7722 905.159 36.9962 905.818 36.2751C906.582 35.4804 907.412 34.7522 908.299 34.0983C909.369 33.3641 910.526 32.7648 911.743 32.314C912.804 31.9265 913.889 31.6106 914.992 31.3682C916.444 31.2121 917.906 31.1704 919.364 31.2433C921.132 31.2258 922.891 31.4909 924.576 32.0284C925.927 32.4531 927.217 33.053 928.413 33.8127C929.424 34.5143 930.347 35.335 931.161 36.2572C931.921 37.2722 932.556 38.3745 933.053 39.5404C933.486 40.5714 933.82 41.6407 934.053 42.7343L934.231 43.9833H918.169C904.319 43.9833 902.106 43.9833 902.106 43.6086C902.232 42.9024 902.423 42.2096 902.677 41.5388Z" fill="#006837"/>
<path fill-rule="evenodd" clip-rule="evenodd" d="M497.813 109.146C496.078 109.346 494.356 109.644 492.655 110.039C490.8 110.501 489.004 111.171 487.301 112.037C485.511 112.867 483.875 113.995 482.464 115.374C481.204 116.569 480.062 117.884 479.055 119.299C478.281 120.464 477.646 121.715 477.163 123.028C476.543 125.457 476.297 127.966 476.432 130.469L476.271 136.143L473.291 140.015C471.649 142.138 470.31 143.958 470.31 144.03C471.315 144.167 472.33 144.215 473.344 144.173H476.396V164.389C476.396 178.199 476.396 185.14 476.093 186.336C475.937 187.267 475.673 188.177 475.307 189.048C474.897 189.767 474.4 190.432 473.826 191.029C473.311 191.553 472.756 192.036 472.166 192.474C471.541 192.884 472.166 192.92 482.214 192.92C491.762 192.92 492.923 192.92 492.405 192.545C491.887 192.171 491.423 191.707 490.888 191.189C490.166 190.428 489.564 189.562 489.103 188.62C488.549 187.388 488.148 186.094 487.907 184.766C487.586 182.981 487.515 179.163 487.515 163.354V144.137H494.19C496.751 144.085 499.313 144.174 501.864 144.405C502.528 144.639 503.136 145.01 503.649 145.493L504.452 146.278V135.376L503.72 135.59C503.31 135.697 499.508 135.84 495.243 135.893L487.515 135.983V130.63C487.447 128.155 487.572 125.68 487.89 123.225C488.074 122.218 488.392 121.239 488.835 120.316C489.251 119.703 489.736 119.14 490.281 118.639C490.851 118.161 491.496 117.782 492.191 117.515C493.485 117.231 494.81 117.111 496.135 117.158C497.802 116.909 499.504 117.243 500.954 118.104L502.828 119.067L504.773 116.944L508.985 112.287C509.779 111.469 510.524 110.605 511.216 109.7C511.216 109.7 509.181 109.45 506.808 109.236C504.434 109.022 501.989 108.879 501.453 108.879C500.918 108.879 499.205 109.022 497.813 109.146Z" fill="#006837"/>
<path fill-rule="evenodd" clip-rule="evenodd" d="M887.899 110.235C887.289 110.641 886.621 110.954 885.918 111.163C883.609 111.559 881.261 111.69 878.922 111.555C877.057 111.473 875.188 111.551 873.336 111.787C873.715 112.215 874.147 112.592 874.621 112.911C875.528 113.64 876.255 114.568 876.745 115.624L877.655 117.408V151.72C877.655 185.961 877.655 186.015 877.155 187.853C876.818 189.232 876.026 190.458 874.906 191.332L873.122 192.991H893.575L892.504 192.224C891.847 191.728 891.248 191.159 890.719 190.529C890.215 189.857 889.795 189.126 889.47 188.352C888.988 187.121 888.97 185.783 889.006 148.383C889.006 116.997 889.006 109.7 888.684 109.7C888.387 109.819 888.119 110.001 887.899 110.235Z" fill="#006837"/>
<path fill-rule="evenodd" clip-rule="evenodd" d="M723.705 113.322C723.018 113.483 722.349 113.71 721.706 114C721.084 114.362 720.487 114.768 719.921 115.213C719.245 115.815 718.682 116.534 718.262 117.336C717.75 118.307 717.515 119.4 717.583 120.495C717.54 121.586 717.747 122.673 718.19 123.671C718.555 124.46 719.003 125.208 719.529 125.901C720.057 126.47 720.657 126.968 721.313 127.382C722.155 127.815 723.049 128.139 723.973 128.346C724.926 128.596 725.928 128.596 726.882 128.346C727.659 128.165 728.409 127.883 729.113 127.507C729.774 127.029 730.373 126.472 730.897 125.848C731.52 125.095 732.014 124.245 732.361 123.332C732.626 122.475 732.776 121.587 732.807 120.691C732.762 119.764 732.576 118.849 732.254 117.979C731.885 117.053 731.353 116.201 730.683 115.463C730.078 114.851 729.394 114.323 728.649 113.893C727.865 113.551 727.035 113.328 726.186 113.233C725.358 113.166 724.526 113.196 723.705 113.322Z" fill="#006837"/>
<path fill-rule="evenodd" clip-rule="evenodd" d="M914.545 118.924C914.545 119.692 914.385 120.869 914.367 121.565C914.285 122.859 914.118 124.147 913.867 125.419C913.563 126.922 913.151 128.401 912.635 129.844C912.188 130.949 911.645 132.011 911.011 133.02C910.306 134.018 909.498 134.938 908.602 135.768C907.51 136.687 906.312 137.472 905.033 138.106C903.887 138.662 902.692 139.11 901.463 139.444L899.857 139.801V144.137H908.316V160.588C908.316 170.723 908.424 177.842 908.602 179.109C908.792 180.397 909.06 181.672 909.405 182.928C909.779 184.153 910.251 185.346 910.815 186.496C911.438 187.663 912.186 188.758 913.046 189.762C913.869 190.658 914.805 191.444 915.83 192.099C916.881 192.705 917.979 193.224 919.114 193.651C920.747 194.223 922.471 194.489 924.201 194.437C925.653 194.51 927.108 194.475 928.555 194.329C929.537 194.115 929.858 193.776 932.749 189.922C933.839 188.558 934.852 187.134 935.783 185.658C935.345 185.701 934.917 185.816 934.516 185.997C933.358 186.337 932.153 186.487 930.947 186.443C929.495 186.509 928.043 186.31 926.663 185.854C925.414 185.473 924.267 184.814 923.308 183.927C922.368 183.102 921.598 182.102 921.042 180.983C920.499 179.801 920.092 178.562 919.828 177.289C919.507 175.505 919.435 172.365 919.435 159.66V144.137L925.985 144.244C931.536 144.333 932.696 144.404 933.588 144.815C934.241 145.104 934.844 145.495 935.373 145.975L936.105 146.67V141.05C936.105 135.697 936.105 135.447 935.641 135.697C935.177 135.947 931.643 135.947 927.306 136L919.435 136.089V117.55H914.67L914.545 118.924Z" fill="#006837"/>
<path fill-rule="evenodd" clip-rule="evenodd" d="M607.894 192.474C607.537 192.224 606.52 191.475 605.663 190.814C604.55 189.922 603.544 188.904 602.665 187.781C601.708 186.475 600.844 185.103 600.077 183.677C599.434 182.41 597.775 178.628 596.4 175.237C595.026 171.847 593.384 167.779 592.724 166.191C592.064 164.603 590.297 160.196 588.762 156.431L584.496 145.921C583.657 143.887 582.087 140.033 580.927 137.357L577.357 128.435C576.429 126.187 574.645 121.797 573.378 118.675C572.11 115.552 570.932 112.679 570.772 112.287L570.486 111.555H550.587L551.64 112.108C552.238 112.423 552.806 112.793 553.335 113.215C553.745 113.625 554.083 114.101 554.334 114.624C554.563 115.272 554.684 115.954 554.691 116.641C554.596 117.735 554.368 118.813 554.013 119.852C553.638 120.977 551.907 125.473 550.14 129.827L546.571 138.962C546.321 139.605 542.894 148.152 538.95 157.93L530.544 178.895C529.866 180.68 528.92 182.839 528.42 183.802C527.805 184.999 527.113 186.155 526.35 187.264C525.682 188.216 524.929 189.106 524.101 189.922C523.295 190.614 522.449 191.258 521.567 191.849C521.049 192.156 520.559 192.508 520.104 192.902C520.104 192.902 525.208 192.991 531.419 192.991H542.734L541.377 192.224C540.63 191.79 539.946 191.256 539.343 190.636C538.921 190.099 538.589 189.496 538.361 188.852C538.211 188.185 538.174 187.497 538.254 186.818C538.361 186.282 538.575 185.247 538.772 184.516C538.968 183.784 540.2 180.234 541.538 176.611C542.877 172.989 544.126 169.599 544.322 169.099L545.714 165.406L546.732 162.64H578.196L579.446 165.798C580.142 167.583 582.194 172.936 584.032 177.646C585.486 180.972 586.651 184.416 587.512 187.942C587.655 189.494 587.62 189.601 586.781 190.547C586.162 191.208 585.439 191.763 584.639 192.188C584.177 192.383 583.744 192.641 583.354 192.956C583.354 192.956 589.047 193.081 595.99 193.081C607.894 192.92 608.519 192.902 607.894 192.474ZM562.277 153.397C555.495 153.397 549.944 153.397 549.944 153.255C549.944 153.112 550.854 150.846 551.943 148.062L555.37 139.426C556.137 137.464 557.297 134.502 557.958 132.842L560.349 126.776L561.83 122.993C561.991 122.6 562.223 122.315 562.348 122.404C562.582 122.651 562.754 122.951 562.848 123.278C563.008 123.671 563.437 124.777 563.794 125.723C564.151 126.668 564.989 128.792 565.578 130.469L567.738 136C568.273 137.374 569.29 139.979 569.987 141.799L572.771 148.937C573.609 151.042 574.323 152.916 574.413 153.094C574.502 153.273 572.003 153.397 562.277 153.397Z" fill="#006837"/>
<path fill-rule="evenodd" clip-rule="evenodd" d="M731.326 135.055L729.737 135.875H723.598C721.541 135.823 719.482 135.924 717.44 136.179C717.44 136.304 717.869 136.66 718.369 136.964C719.048 137.468 719.649 138.069 720.153 138.748C720.727 139.524 721.19 140.377 721.528 141.282C721.938 142.513 721.992 144.583 722.081 163.068C722.081 177.432 722.081 184.123 721.867 185.586C721.696 186.733 721.385 187.853 720.939 188.923C720.531 189.664 720.027 190.349 719.439 190.957C718.957 191.403 718.261 192.01 717.904 192.295L717.244 192.831H738.054L736.715 191.778C735.946 191.164 735.257 190.457 734.663 189.672C734.19 188.871 733.836 188.006 733.61 187.103C733.324 185.89 733.253 180.555 733.253 159.821C733.253 145.546 733.253 134.073 733.057 134.091C732.463 134.381 731.885 134.702 731.326 135.055Z" fill="#006837"/>
<path fill-rule="evenodd" clip-rule="evenodd" d="M691.116 135.215C689.831 135.84 689.563 135.876 683.192 136.001L676.606 136.125L677.909 137.142C678.67 137.74 679.348 138.436 679.926 139.212C680.349 139.85 680.702 140.532 680.979 141.246C681.228 141.96 681.335 147.509 681.389 163.907C681.389 182.518 681.389 185.854 681.068 187.103C680.832 188.011 680.472 188.882 679.997 189.691C679.432 190.493 678.753 191.208 677.98 191.814L676.642 192.867H687.047C696.345 192.867 697.398 192.867 696.934 192.456C696.366 192.005 695.824 191.522 695.31 191.011C694.66 190.379 694.112 189.651 693.686 188.852C693.291 187.884 693.016 186.871 692.865 185.836C692.686 184.659 692.561 179.645 692.561 172.704C692.561 166.512 692.686 160.017 692.847 158.251C692.997 156.503 693.272 154.768 693.668 153.059C694.025 151.822 694.509 150.626 695.114 149.49C695.652 148.551 696.319 147.692 697.095 146.938C697.805 146.356 698.577 145.853 699.397 145.439C700.347 145.038 701.333 144.728 702.342 144.512C703.454 144.293 704.582 144.168 705.715 144.137C706.715 144.144 707.712 144.239 708.695 144.422C709.488 144.607 710.247 144.914 710.944 145.332L711.89 145.975V134.93L711.016 134.805L708.57 134.519C707.334 134.454 706.094 134.532 704.876 134.751C703.618 134.976 702.386 135.329 701.2 135.804C700.078 136.314 698.998 136.911 697.969 137.589C696.9 138.38 695.924 139.289 695.06 140.301C694.441 141.038 693.886 141.825 693.4 142.656C693.186 143.138 692.901 143.513 692.793 143.513C692.55 142.015 692.455 140.497 692.508 138.98V134.43L691.116 135.215Z" fill="#006837"/>
<path fill-rule="evenodd" clip-rule="evenodd" d="M777.764 134.716C776.318 134.841 774.052 135.18 772.731 135.447C771.41 135.715 769.161 136.339 767.841 136.803C766.179 137.367 764.552 138.029 762.968 138.784C761.461 139.596 760.007 140.502 758.614 141.496C757.287 142.505 756.034 143.608 754.866 144.797C752.948 146.741 751.357 148.983 750.154 151.435C749.528 152.741 748.992 154.088 748.548 155.467C748.019 157.222 747.607 159.01 747.316 160.82C747.016 162.845 746.914 164.895 747.013 166.94C747.078 168.688 747.305 170.427 747.691 172.133C747.995 173.239 748.619 175.059 749.065 176.165C749.666 177.517 750.364 178.823 751.154 180.073C752.147 181.475 753.232 182.81 754.402 184.07C755.687 185.365 757.072 186.558 758.542 187.638C759.92 188.622 761.363 189.51 762.861 190.297C764.227 190.965 765.627 191.561 767.055 192.081C768.144 192.474 770.232 193.098 771.678 193.473C774.334 194.083 777.056 194.353 779.78 194.276C782.559 194.384 785.342 194.33 788.115 194.116C789.953 193.911 791.777 193.595 793.576 193.17C794.697 192.967 795.8 192.681 796.878 192.313C798.092 191.072 799.06 189.613 799.734 188.013L802.893 182.286C803.245 181.728 803.527 181.128 803.732 180.501C803.284 180.707 802.86 180.958 802.464 181.251C801.49 181.905 800.476 182.501 799.43 183.035C798.377 183.552 796.843 184.248 796.022 184.552C795.201 184.855 793.916 185.283 793.166 185.479C792.416 185.676 790.757 186.015 789.454 186.229C788.095 186.443 786.724 186.568 785.349 186.604C783.897 186.573 782.448 186.448 781.012 186.229C779.319 185.947 777.649 185.541 776.015 185.015C774.699 184.558 773.411 184.022 772.16 183.41C771.357 182.964 770.036 182.161 769.215 181.625C767.942 180.691 766.748 179.652 765.646 178.521C764.539 177.366 763.541 176.111 762.665 174.774C762.079 173.756 761.549 172.708 761.077 171.633C760.72 170.76 760.417 169.866 760.166 168.957C760.006 168.296 759.738 167.065 759.595 166.209C759.432 165.116 759.342 164.013 759.328 162.908C759.358 161.604 759.483 160.304 759.702 159.018C759.967 157.673 760.331 156.349 760.791 155.057C761.157 154.127 761.58 153.221 762.058 152.345C762.632 151.447 763.258 150.583 763.932 149.758C764.812 148.707 765.793 147.745 766.859 146.885C768.997 145.263 771.418 144.053 773.998 143.316C776.019 142.762 778.119 142.557 780.209 142.709C782.304 142.56 784.41 142.765 786.438 143.316C787.853 143.753 789.232 144.302 790.56 144.958C791.828 145.625 793.024 146.42 794.13 147.331L795.629 148.669V135.804L792.916 135.358C791.435 135.108 788.668 134.787 786.794 134.644C784.92 134.502 782.707 134.395 781.904 134.412C781.101 134.43 779.227 134.591 777.764 134.716Z" fill="#006837"/>
<path fill-rule="evenodd" clip-rule="evenodd" d="M818.991 135.215C817.688 135.893 817.563 135.911 811.103 136C808.916 135.98 806.73 136.076 804.553 136.286C804.553 136.393 804.91 136.661 805.32 136.91C805.94 137.337 806.509 137.834 807.016 138.391C807.651 139.171 808.174 140.036 808.568 140.961L809.193 142.513L809.354 158.982C809.479 172.347 809.604 175.844 809.925 177.45C810.157 178.556 810.549 180.144 810.781 181.019C811.115 182.106 811.514 183.173 811.977 184.213C812.414 185.174 812.927 186.099 813.512 186.978C814.14 187.844 814.832 188.661 815.582 189.423C816.381 190.213 817.253 190.924 818.188 191.546C819.165 192.129 820.185 192.636 821.24 193.063C822.186 193.437 823.489 193.901 824.149 194.098C826.334 194.422 828.545 194.535 830.752 194.437C833.101 194.641 835.468 194.479 837.766 193.955C838.928 193.581 840.057 193.109 841.139 192.545C842.376 191.863 843.532 191.043 844.584 190.101C845.615 189.134 846.565 188.084 847.422 186.96C847.817 186.369 848.284 185.83 848.814 185.354C849.008 186.617 849.074 187.897 849.01 189.173V192.991H864.983L863.77 192.135C863.12 191.677 862.522 191.151 861.985 190.565C861.545 189.947 861.163 189.29 860.843 188.602L860.272 187.335V160.909C860.272 146.367 860.147 134.466 860.075 134.466C859.743 134.624 859.432 134.822 859.147 135.055C858.319 135.517 857.411 135.819 856.47 135.947C854.141 136.196 851.795 136.255 849.456 136.125C847.758 135.922 846.039 135.964 844.352 136.25C844.352 136.393 844.816 136.839 845.405 137.232C846.154 137.827 846.81 138.53 847.35 139.319C847.897 140.189 848.318 141.132 848.6 142.121C848.903 143.263 848.974 146.457 848.974 157.412C849.148 162.643 849.029 167.879 848.617 173.096C848.252 174.578 847.738 176.019 847.083 177.397C846.436 178.872 845.523 180.215 844.388 181.358C843.538 182.201 842.598 182.949 841.586 183.588C840.625 184.087 839.622 184.499 838.587 184.819C837.244 185.214 835.847 185.395 834.447 185.354C833.104 185.357 831.764 185.22 830.449 184.944C829.554 184.718 828.677 184.425 827.826 184.07C826.906 183.581 826.048 182.982 825.273 182.286C824.358 181.42 823.571 180.429 822.935 179.341C822.295 178 821.781 176.603 821.4 175.166L820.704 172.597L820.544 153.576L820.401 134.555L818.991 135.215Z" fill="#006837"/>
<path fill-rule="evenodd" clip-rule="evenodd" d="M957.771 135.215C956.468 135.893 956.343 135.911 950.025 136C947.886 135.958 945.746 136.053 943.618 136.286C943.903 136.658 944.261 136.968 944.671 137.196C945.356 137.693 945.958 138.295 946.456 138.98C946.993 139.764 947.408 140.624 947.687 141.532C948.044 142.781 948.116 145.1 948.169 158.286C948.169 170.955 948.294 174.042 948.651 176.219C948.883 177.664 949.258 179.448 949.454 180.18C949.651 180.912 950.025 181.964 950.257 182.625C950.673 183.654 951.144 184.661 951.667 185.64C952.4 186.951 953.313 188.152 954.38 189.209C955.364 190.192 956.446 191.07 957.61 191.832C958.713 192.435 959.865 192.942 961.055 193.348C962.37 193.776 963.72 194.093 965.088 194.294C967.16 194.473 969.24 194.52 971.317 194.437C973.367 194.543 975.42 194.265 977.367 193.616C978.55 193.201 979.696 192.687 980.794 192.081C981.967 191.346 983.056 190.484 984.042 189.512C984.997 188.561 985.879 187.541 986.684 186.461L987.594 185.158V189.03V192.92H995.589C1003.21 192.92 1003.57 192.92 1002.94 192.456C1002.32 191.992 1001.91 191.671 1001.43 191.261C1000.78 190.6 1000.24 189.842 999.837 189.012L999.105 187.531V160.963C999.105 146.349 998.962 134.394 998.873 134.394C998.567 134.523 998.279 134.691 998.017 134.894C997.429 135.266 996.792 135.554 996.125 135.751C993.712 136.078 991.273 136.167 988.843 136.018H982.757L984.399 137.481C985.373 138.319 986.183 139.33 986.791 140.461L987.522 141.96L987.844 156.627C987.844 169.599 987.844 171.633 987.469 173.364C987.216 174.511 986.864 175.633 986.416 176.718C986.004 177.603 985.527 178.456 984.988 179.27C984.382 180.115 983.701 180.903 982.954 181.625C982.139 182.393 981.234 183.058 980.259 183.606C979.316 184.082 978.338 184.481 977.332 184.801C976.063 185.101 974.762 185.245 973.459 185.23C972.01 185.24 970.565 185.072 969.158 184.73C968.1 184.452 967.076 184.057 966.106 183.552C965.25 183.007 964.455 182.373 963.732 181.661C962.999 180.882 962.369 180.013 961.858 179.074C961.501 178.324 961.019 177.182 960.787 176.522C960.421 175.271 960.147 173.995 959.966 172.704C959.663 170.58 959.574 166.619 959.574 152.202C959.574 142.388 959.484 134.359 959.377 134.359C959.27 134.359 958.503 134.805 957.771 135.215Z" fill="#006837"/>
<path fill-rule="evenodd" clip-rule="evenodd" d="M1026.5 135.215C1025.2 135.893 1025.07 135.911 1018.76 136C1016.62 135.969 1014.48 136.053 1012.35 136.25C1012.7 136.655 1013.1 137.009 1013.54 137.303C1014.27 137.856 1014.91 138.518 1015.44 139.266C1015.88 140.029 1016.24 140.844 1016.49 141.692C1016.79 142.781 1016.86 147.045 1016.86 164.639C1016.86 182.749 1016.86 186.461 1016.47 187.478C1016.25 188.166 1015.99 188.839 1015.69 189.494C1015.13 190.286 1014.49 191.005 1013.76 191.635L1012.24 192.974H1032.8L1031.21 191.546C1030.29 190.779 1029.55 189.823 1029.04 188.745C1028.6 187.601 1028.34 186.398 1028.27 185.176C1028.16 183.927 1028.16 176.736 1028.27 169.117C1028.41 156.502 1028.46 155.271 1028.95 153.576C1029.29 152.432 1029.71 151.312 1030.2 150.221C1030.7 149.227 1031.34 148.308 1032.1 147.491C1032.94 146.694 1033.89 146.032 1034.92 145.529C1036 145.049 1037.14 144.702 1038.3 144.494C1039.32 144.304 1040.35 144.185 1041.39 144.137C1042.3 144.151 1043.2 144.246 1044.1 144.422C1044.9 144.61 1045.66 144.917 1046.36 145.332L1047.29 145.975V134.93L1046.44 134.805L1043.99 134.519C1042.75 134.454 1041.5 134.532 1040.28 134.751C1039.06 134.975 1037.86 135.322 1036.71 135.786C1035.78 136.214 1034.89 136.709 1034.03 137.267C1033.16 137.885 1032.35 138.571 1031.59 139.319C1030.76 140.195 1030 141.138 1029.32 142.138L1028.3 143.691V139.034C1028.37 137.491 1028.3 135.945 1028.11 134.412C1027.91 134.484 1027.23 134.805 1026.5 135.215Z" fill="#006837"/>
<path fill-rule="evenodd" clip-rule="evenodd" d="M465.116 157.144C464.795 155.949 464.277 154.343 463.974 153.576C463.671 152.809 463.082 151.506 462.653 150.65C462.021 149.468 461.331 148.318 460.583 147.206C459.647 145.878 458.609 144.625 457.478 143.459C456.33 142.304 455.107 141.225 453.819 140.229C452.393 139.214 450.889 138.313 449.321 137.535C447.66 136.743 445.934 136.093 444.164 135.59C442.401 135.168 440.612 134.864 438.809 134.68C437.203 134.519 435.24 134.412 434.58 134.43C433.919 134.448 432.242 134.573 431.01 134.698C429.468 134.87 427.937 135.126 426.423 135.465C425.138 135.768 423.229 136.304 422.194 136.678C421.04 137.097 419.908 137.574 418.803 138.106C417.999 138.516 416.268 139.551 414.966 140.425C413.309 141.578 411.767 142.886 410.361 144.333C409.185 145.535 408.094 146.817 407.095 148.169C406.559 149.008 405.685 150.525 405.185 151.524C403.882 154.143 402.991 156.948 402.544 159.839C402.044 163.246 402.044 166.709 402.544 170.116C402.773 171.497 403.089 172.862 403.49 174.202C403.913 175.417 404.402 176.609 404.953 177.771C407.025 182.004 410.086 185.676 413.877 188.477C415.302 189.469 416.792 190.363 418.339 191.153C419.546 191.755 420.785 192.291 422.051 192.759C422.783 192.991 424.264 193.437 425.353 193.723C427.437 194.198 429.569 194.432 431.706 194.419C433.938 194.54 436.175 194.492 438.399 194.276C439.959 194.045 441.502 193.717 443.021 193.295C444.581 192.832 446.113 192.278 447.608 191.635C449.162 190.925 450.665 190.109 452.106 189.191C453.607 188.177 455.032 187.056 456.371 185.836C457.653 184.64 458.846 183.352 459.941 181.982C460.87 180.753 461.711 179.459 462.457 178.11C463.05 177.02 463.574 175.893 464.028 174.738C464.331 173.935 464.831 172.275 465.17 171.044C465.74 168.766 465.939 166.41 465.759 164.068C465.905 161.741 465.688 159.405 465.116 157.144ZM452.927 171.419C452.478 173.098 451.881 174.735 451.142 176.308C450.291 178.119 449.076 179.734 447.572 181.054C446.302 182.45 444.775 183.589 443.075 184.409C441.848 185.024 440.57 185.532 439.256 185.925C438.079 186.187 436.887 186.371 435.686 186.479C432.9 186.701 430.1 186.293 427.494 185.283C426.249 184.75 425.054 184.105 423.925 183.356C423 182.681 422.123 181.942 421.301 181.143C420.784 180.573 419.873 179.466 419.285 178.663C418.625 177.766 418.028 176.824 417.5 175.844C417.125 175.095 416.518 173.721 416.161 172.793C415.723 171.56 415.353 170.303 415.055 169.028C414.634 166.999 414.472 164.924 414.573 162.854C414.421 160.771 414.627 158.677 415.18 156.663C415.605 155.424 416.124 154.219 416.732 153.058C417.205 152.12 417.73 151.209 418.303 150.328C418.982 149.429 419.722 148.577 420.516 147.777C421.498 146.846 422.575 146.021 423.728 145.314C424.811 144.679 425.945 144.136 427.119 143.691C428.075 143.381 429.046 143.119 430.029 142.906C431.522 142.748 433.026 142.706 434.526 142.781C436.26 142.73 437.988 142.99 439.63 143.548C440.815 143.959 441.967 144.46 443.075 145.047C444.363 145.868 445.56 146.825 446.644 147.902C447.805 149.064 448.835 150.35 449.714 151.738C450.382 152.889 450.978 154.081 451.499 155.307C451.991 156.596 452.409 157.912 452.748 159.25C453.185 161.231 453.418 163.252 453.444 165.281C453.623 167.353 453.448 169.441 452.927 171.455V171.419Z" fill="#006837"/>
<path fill-rule="evenodd" clip-rule="evenodd" d="M659.062 142.977C661.386 143.375 663.737 143.595 666.094 143.637C668.789 143.637 669.092 143.637 669.663 143.048C670.389 142.049 670.988 140.965 671.448 139.819L673.233 135.804L673.84 134.412H654.333C643.624 134.412 633.808 134.555 632.559 134.662C631.185 134.804 629.821 135.025 628.472 135.322C627.455 135.554 625.92 135.983 625.063 136.25C624.207 136.518 622.779 137.107 621.851 137.535C620.744 138.051 619.676 138.647 618.656 139.319C617.627 140.016 616.649 140.785 615.729 141.621C614.767 142.527 613.889 143.519 613.106 144.583C612.422 145.571 611.825 146.615 611.321 147.706C610.867 148.806 610.497 149.939 610.214 151.096C609.928 152.506 609.779 153.94 609.768 155.378C609.792 156.793 609.948 158.203 610.232 159.589C610.607 160.951 611.103 162.276 611.714 163.55C612.402 164.91 613.227 166.195 614.177 167.387C615.141 168.514 616.204 169.553 617.353 170.491C618.587 171.419 619.908 172.226 621.298 172.9C622.447 173.447 623.641 173.894 624.867 174.238C625.742 174.47 626.027 174.631 625.795 174.791C625.563 174.952 624.599 175.327 623.582 175.719C622.565 176.112 621.048 176.754 620.227 177.165C619.367 177.591 618.554 178.106 617.799 178.699C617.291 179.151 616.873 179.696 616.568 180.305C616.307 181.038 616.307 181.838 616.568 182.571C616.768 183.487 617.067 184.378 617.46 185.23C617.99 186.142 618.659 186.967 619.441 187.674C620.25 188.437 621.194 189.042 622.226 189.458C623.457 189.869 624.796 189.922 633.273 189.958C641.75 189.994 643.214 190.047 645.766 190.547C647.319 190.85 649.336 191.314 650.121 191.546C651.195 191.875 652.245 192.281 653.262 192.759C654.224 193.246 655.144 193.813 656.01 194.455C656.767 195.064 657.444 195.765 658.027 196.542C658.536 197.27 658.933 198.07 659.205 198.915C659.428 199.976 659.501 201.064 659.419 202.145C659.408 203.386 659.109 204.608 658.545 205.714C657.947 206.823 657.176 207.829 656.26 208.693C655.083 209.785 653.732 210.671 652.262 211.316C650.915 211.941 649.525 212.471 648.104 212.904C647.14 213.136 645.249 213.511 643.856 213.725C639.507 214.272 635.106 214.272 630.757 213.725C629.147 213.464 627.555 213.1 625.991 212.637C624.766 212.219 623.573 211.712 622.422 211.12C621.464 210.54 620.573 209.858 619.763 209.086C618.978 208.257 618.317 207.32 617.799 206.302C617.255 205.189 616.957 203.972 616.925 202.734C616.842 201.748 616.908 200.756 617.121 199.79C617.318 199.197 617.614 198.642 617.996 198.148C618.536 197.586 619.178 197.132 619.888 196.81L621.226 196.203L620.173 195.757C619.073 195.394 617.945 195.119 616.8 194.936C615.22 194.573 613.579 194.573 611.999 194.936C610.617 195.17 609.265 195.553 607.966 196.078C607.001 196.546 606.105 197.147 605.306 197.863C604.67 198.51 604.118 199.235 603.665 200.022C603.262 200.953 602.974 201.929 602.808 202.93C602.559 204.107 602.559 205.322 602.808 206.499C603.048 207.581 603.419 208.63 603.914 209.621C604.468 210.612 605.12 211.544 605.86 212.405C606.801 213.395 607.842 214.286 608.965 215.063C610.108 215.87 611.294 216.614 612.517 217.294C613.534 217.793 615.39 218.561 616.622 219.078C617.853 219.596 620.191 220.184 621.779 220.577C624.09 221.098 626.425 221.503 628.776 221.79C631.412 222.095 634.063 222.262 636.718 222.29C638.841 222.29 642.072 222.111 644.017 221.897C645.962 221.683 648.336 221.308 649.371 221.076C650.406 220.845 652.53 220.309 653.976 219.881C655.528 219.404 657.053 218.844 658.545 218.204C659.972 217.517 661.355 216.743 662.685 215.884C665.154 214.339 667.28 212.305 668.932 209.907C669.559 208.925 670.102 207.893 670.556 206.82C670.881 205.904 671.149 204.968 671.359 204.018C671.531 202.873 671.614 201.715 671.609 200.557C671.605 199.362 671.516 198.17 671.341 196.988C671.057 195.822 670.644 194.691 670.11 193.616C669.436 192.227 668.51 190.974 667.379 189.922C666.158 188.717 664.754 187.712 663.221 186.943C661.812 186.205 660.35 185.573 658.848 185.051C657.742 184.694 655.636 184.159 654.136 183.856C652.637 183.552 650.335 183.195 649.014 183.035C647.694 182.874 643.66 182.66 640.091 182.553C634.344 182.357 633.452 182.268 632.684 181.822C632.205 181.542 631.797 181.158 631.488 180.697C631.392 180.497 631.342 180.278 631.342 180.055C631.342 179.833 631.392 179.613 631.488 179.413C631.645 179.023 631.889 178.675 632.202 178.396C632.668 178.063 633.157 177.765 633.666 177.504C635.2 176.94 636.802 176.586 638.431 176.451C640.483 176.183 643 175.773 644.035 175.541C645.07 175.309 646.837 174.827 647.997 174.452C649.452 173.94 650.876 173.344 652.262 172.668C653.442 172.088 654.586 171.438 655.689 170.723C656.592 170.053 657.456 169.332 658.277 168.564C659.752 167.153 660.93 165.46 661.739 163.586C662.087 162.663 662.361 161.715 662.56 160.749C662.788 159.65 662.92 158.534 662.953 157.412C662.92 156.26 662.783 155.113 662.542 153.986C662.232 152.688 661.802 151.422 661.257 150.204C660.659 149.003 659.948 147.861 659.134 146.795C658.24 145.747 657.261 144.774 656.207 143.887C655.279 143.138 654.618 142.477 654.743 142.424C654.868 142.37 656.814 142.602 659.062 142.977ZM649.835 160.374C649.39 161.504 648.789 162.567 648.05 163.532C646.552 165.465 644.525 166.922 642.215 167.725C640.985 168.067 639.723 168.276 638.449 168.35C637.126 168.442 635.796 168.382 634.487 168.172C633.256 167.906 632.059 167.505 630.917 166.976C629.709 166.367 628.562 165.644 627.491 164.817C626.428 163.895 625.476 162.853 624.653 161.712C623.945 160.627 623.347 159.473 622.868 158.269C622.313 156.758 622.105 155.142 622.261 153.54C622.031 151.957 622.279 150.341 622.975 148.901C623.508 147.91 624.175 146.998 624.956 146.189C625.89 145.325 626.942 144.598 628.079 144.03C629.098 143.545 630.162 143.162 631.256 142.888C632.706 142.699 634.169 142.639 635.629 142.709C637.238 142.699 638.838 142.933 640.376 143.405C641.469 143.808 642.531 144.291 643.553 144.851C644.446 145.382 645.299 145.979 646.105 146.635C646.863 147.329 647.54 148.107 648.122 148.955C648.719 149.899 649.227 150.896 649.639 151.934C650.133 153.281 650.352 154.713 650.281 156.145C650.389 157.57 650.238 159.003 649.835 160.374Z" fill="#006837"/>
<path fill-rule="evenodd" clip-rule="evenodd" d="M1102.41 183.695C1100.8 184.399 1099.15 184.995 1097.46 185.479C1095.73 185.908 1093.97 186.23 1092.2 186.443C1090.35 186.642 1088.48 186.69 1086.63 186.586C1085.12 186.494 1083.62 186.316 1082.13 186.05C1080.88 185.763 1079.65 185.412 1078.44 184.998C1077.07 184.5 1075.75 183.903 1074.47 183.213C1072.87 182.222 1071.4 181.022 1070.1 179.645C1068.72 178.361 1067.52 176.896 1066.53 175.291C1065.84 174.047 1065.24 172.752 1064.75 171.419C1064.29 170.056 1063.93 168.66 1063.68 167.244C1063.47 166.105 1063.33 164.955 1063.27 163.8V162.64H1109.2L1109.04 160.338C1108.94 159.072 1108.69 157.145 1108.47 156.056C1108.26 154.968 1107.83 153.308 1107.53 152.38C1107.13 151.257 1106.68 150.155 1106.17 149.079C1105.56 147.927 1104.9 146.807 1104.17 145.725C1103.25 144.445 1102.22 143.25 1101.08 142.156C1100.11 141.222 1099.08 140.352 1098 139.551C1097.35 139.105 1096.05 138.338 1095.11 137.767C1094.03 137.212 1092.92 136.718 1091.79 136.286C1090.91 135.983 1089.56 135.554 1088.75 135.34C1087.37 135.032 1085.98 134.806 1084.58 134.662C1083.08 134.519 1081.29 134.395 1080.6 134.412C1079.9 134.43 1078.22 134.555 1076.85 134.68C1075.17 134.87 1073.51 135.168 1071.87 135.572C1070.25 136.017 1068.67 136.559 1067.12 137.196C1065.55 137.911 1064.02 138.74 1062.57 139.676C1061.25 140.553 1060 141.525 1058.82 142.585C1057.82 143.572 1056.88 144.621 1056 145.725C1055.16 146.827 1054.39 147.983 1053.7 149.187C1053.18 150.15 1052.45 151.685 1052.08 152.612C1051.7 153.54 1051.2 155.182 1050.92 156.27C1050.56 157.884 1050.3 159.516 1050.13 161.159C1049.93 163.045 1049.93 164.947 1050.13 166.833C1050.3 168.467 1050.57 170.089 1050.95 171.687C1051.4 173.243 1051.97 174.764 1052.65 176.237C1053.37 177.758 1054.21 179.224 1055.15 180.626C1056.21 182.111 1057.41 183.502 1058.72 184.784C1060.01 186.022 1061.4 187.167 1062.86 188.209C1064.14 189.039 1065.47 189.801 1066.84 190.493C1068 191.064 1069.83 191.849 1070.92 192.278C1072.01 192.706 1074.17 193.277 1075.69 193.634C1078.3 194.209 1080.97 194.479 1083.65 194.437C1086.34 194.556 1089.03 194.509 1091.71 194.294C1093.52 194.089 1095.3 193.779 1097.07 193.366C1098.46 193.027 1100.26 192.474 1101.1 192.171C1102.48 191.653 1102.67 191.457 1103.51 189.958C1104.01 189.066 1105.05 187.139 1105.81 185.694C1106.58 184.248 1107.6 182.428 1107.99 181.661C1108.29 181.198 1108.53 180.693 1108.69 180.162C1107.96 180.482 1107.27 180.883 1106.63 181.358C1105.28 182.231 1103.87 183.012 1102.41 183.695ZM1064 154.522C1064.18 153.735 1064.43 152.965 1064.75 152.22C1065.15 151.308 1065.61 150.425 1066.14 149.579C1066.8 148.612 1067.56 147.71 1068.39 146.885C1069.34 145.994 1070.4 145.227 1071.55 144.601C1072.57 144.072 1073.63 143.631 1074.72 143.28C1075.53 143.066 1076.51 142.816 1076.97 142.763C1078.34 142.69 1079.71 142.69 1081.08 142.763C1082.68 142.766 1084.28 142.946 1085.84 143.298C1086.96 143.666 1088.05 144.126 1089.09 144.672C1090.3 145.301 1091.38 146.141 1092.29 147.152C1093.1 148.046 1093.8 149.035 1094.37 150.097C1094.87 151.155 1095.27 152.254 1095.59 153.38C1095.82 154.026 1095.95 154.708 1095.96 155.396C1095.87 155.396 1088.61 155.539 1079.81 155.539H1063.75L1064 154.522Z" fill="#006837"/>
<path fill-rule="evenodd" clip-rule="evenodd" d="M415.108 288.952C414.073 289.148 412.52 289.505 411.646 289.755C410.523 290.1 409.426 290.523 408.362 291.022C407.288 291.577 406.282 292.253 405.364 293.038C404.59 293.725 403.89 294.49 403.276 295.322C402.792 296.08 402.391 296.888 402.08 297.731C401.752 298.952 401.608 300.214 401.651 301.478C401.607 302.735 401.752 303.992 402.08 305.207C402.809 307.208 404.038 308.989 405.649 310.381C406.493 311.1 407.375 311.773 408.291 312.398C409.772 313.278 411.297 314.082 412.859 314.807C414.644 315.627 417.446 316.983 419.195 317.84C420.874 318.646 422.48 319.595 423.996 320.677C424.954 321.422 425.755 322.35 426.352 323.407C427.018 324.469 427.255 325.745 427.012 326.976C427.107 328.124 426.763 329.265 426.048 330.17C425.373 330.994 424.586 331.721 423.71 332.329C422.645 332.982 421.507 333.509 420.32 333.899C418.959 334.3 417.544 334.487 416.125 334.452C414.736 334.426 413.351 334.283 411.985 334.024C410.674 333.728 409.381 333.359 408.112 332.917C406.794 332.411 405.512 331.814 404.275 331.133C403.283 330.596 402.323 330 401.401 329.349C401.094 329.064 400.752 328.819 400.384 328.617C400.384 328.617 400.563 329.545 400.777 330.562C400.991 331.579 401.455 333.56 401.794 334.952L402.383 337.467L403.722 337.967C404.988 338.379 406.275 338.724 407.577 339.002C410.038 339.487 412.548 339.679 415.055 339.573C417.45 339.8 419.867 339.6 422.194 338.984C423.551 338.573 424.876 338.06 426.156 337.45C427.171 336.953 428.155 336.393 429.1 335.772C430.084 335.017 431.003 334.181 431.849 333.274C432.806 332.236 433.633 331.086 434.312 329.848C434.833 328.709 435.217 327.511 435.454 326.28C435.714 325.104 435.714 323.886 435.454 322.711C435.254 321.778 434.955 320.869 434.562 319.999C434.028 319.093 433.386 318.254 432.652 317.501C431.771 316.582 430.803 315.752 429.761 315.021C428.922 314.45 425.085 312.433 421.23 310.542C418.259 309.286 415.429 307.719 412.788 305.867C411.968 305.131 411.27 304.27 410.718 303.316C410.287 302.508 410.06 301.608 410.057 300.693C410.073 299.818 410.267 298.956 410.629 298.159C411.002 297.408 411.524 296.74 412.163 296.196C412.793 295.715 413.476 295.308 414.198 294.983C414.934 294.686 415.692 294.448 416.465 294.269C417.526 294.09 418.601 294 419.677 294.001C420.973 294.017 422.264 294.16 423.532 294.43C424.821 294.75 426.075 295.192 427.28 295.75C428.34 296.272 429.345 296.899 430.278 297.624L431.42 298.605V294.483C431.42 290.808 431.42 290.344 430.956 290.183C430.492 290.022 429.332 289.773 427.94 289.469C425.739 289.06 423.505 288.845 421.265 288.827C419.214 288.659 417.151 288.7 415.108 288.952Z" fill="#006837"/>
<path fill-rule="evenodd" clip-rule="evenodd" d="M442.843 291.503C442.557 292.592 442.022 294.448 441.647 295.607C441.402 296.319 441.205 297.046 441.058 297.784C441.486 297.607 441.888 297.373 442.254 297.088C443.138 296.552 444.07 296.098 445.038 295.732C447.164 295.121 449.38 294.879 451.588 295.018L456.46 294.894V311.755C456.46 321.016 456.46 329.313 456.549 330.205C456.561 331.365 456.471 332.523 456.282 333.667C456.105 334.708 455.762 335.714 455.265 336.647C454.955 337.162 454.526 337.596 454.015 337.913C453.73 337.913 453.48 338.181 453.48 338.324C455.897 338.589 458.331 338.672 460.761 338.573H468.025L466.722 337.449C465.984 336.766 465.373 335.956 464.92 335.058L464.295 333.702V294.894L469.168 295.001C473.558 295.108 474.147 295.179 475.164 295.697C475.846 296.044 476.453 296.523 476.949 297.106L477.556 297.909L477.77 297.16L478.787 293.359C479.233 291.682 479.644 290.129 479.715 289.897C479.787 289.666 477.698 289.505 461.69 289.505H443.396L442.843 291.503Z" fill="#006837"/>
<path fill-rule="evenodd" clip-rule="evenodd" d="M535.577 292.556C535.095 294.34 534.542 296.125 534.346 296.767C534.149 297.409 534.06 297.838 534.346 297.695L535.542 296.928C536.357 296.477 537.211 296.101 538.094 295.804C540.267 295.182 542.531 294.941 544.786 295.09L549.801 294.965V314.485C549.801 333.899 549.801 334.006 549.141 335.415C548.852 336.159 548.455 336.856 547.963 337.485C547.716 337.782 547.387 337.999 547.017 338.11C546.821 338.11 546.66 338.234 546.66 338.377C549.068 338.693 551.5 338.783 553.924 338.645H561.206L559.814 337.449C558.946 336.744 558.28 335.82 557.886 334.773C557.351 333.346 557.333 332.846 557.333 314.146V294.894L562.205 295.001C566.578 295.108 567.203 295.179 568.184 295.697C568.857 296.051 569.461 296.522 569.969 297.088L570.611 297.927L571.718 293.841C572.343 291.575 572.842 289.683 572.842 289.63C572.842 289.576 564.686 289.505 554.745 289.505H536.452L535.577 292.556Z" fill="#006837"/>
<path fill-rule="evenodd" clip-rule="evenodd" d="M593.688 289.576H579.963L581.016 290.344C581.795 290.897 582.411 291.649 582.801 292.52L583.443 293.948V334.113L582.801 335.54C582.406 336.414 581.791 337.17 581.016 337.735L579.945 338.502H595.526H611.089L612.874 333.613L614.569 328.742L613.748 329.42C612.962 330.011 612.133 330.541 611.267 331.008C610.121 331.615 608.927 332.128 607.698 332.543C605.97 333.094 604.152 333.306 602.344 333.167C600.434 333.167 597.096 333.006 594.937 332.81L590.993 332.436V314.699H594.991C596.78 314.669 598.569 314.765 600.345 314.985C601.119 315.159 601.852 315.48 602.504 315.931L603.29 316.591V309.132L602.29 309.329C601.737 309.418 599.006 309.507 596.222 309.507H591.153V302.53V295.572L592.153 295.357C594.039 295.178 595.934 295.107 597.828 295.143C599.87 294.966 601.926 295.129 603.914 295.625C604.84 295.98 605.716 296.454 606.52 297.035L607.716 297.927V293.68C607.716 291.343 607.716 289.451 607.716 289.487C607.716 289.523 601.219 289.523 593.688 289.576Z" fill="#006837"/>
<path fill-rule="evenodd" clip-rule="evenodd" d="M716.708 289.576H703.18L704.34 290.736C705.027 291.385 705.553 292.185 705.875 293.073C706.143 293.966 706.214 298.426 706.214 314.039C706.214 329.652 706.214 334.095 705.857 335.041C705.55 335.936 705.022 336.74 704.323 337.378L703.145 338.502H710.158C717.172 338.502 717.173 338.502 716.494 337.967C716.246 337.748 715.962 337.573 715.655 337.449C715.262 336.994 714.948 336.475 714.727 335.915L713.96 334.38V324.477V314.575H718.208C720.054 314.479 721.906 314.605 723.722 314.949C724.47 315.185 725.166 315.561 725.775 316.055L726.542 316.787V308.972L725.4 309.186C724.775 309.293 721.991 309.382 719.207 309.382H714.121V302.405V295.447L715.138 295.232C717.066 295.062 719.002 294.991 720.938 295.018C725.079 295.018 725.953 295.018 727.167 295.536C728.045 295.886 728.869 296.361 729.612 296.945C729.967 297.272 730.356 297.559 730.772 297.802C730.911 296.504 730.965 295.199 730.933 293.894C730.994 292.494 730.934 291.091 730.754 289.701C726.077 289.42 721.389 289.378 716.708 289.576Z" fill="#006837"/>
<path fill-rule="evenodd" clip-rule="evenodd" d="M756.329 290.772C757.101 291.456 757.659 292.348 757.935 293.341C758.31 294.608 758.364 297.177 758.364 314.164C758.364 332.757 758.364 333.595 757.846 335.058C757.528 336.026 756.962 336.893 756.204 337.574L755.098 338.573H769.036L767.876 337.432C767.036 336.667 766.476 335.643 766.288 334.523C765.913 333.042 765.842 331.276 765.842 323.692V314.646H792.809V324.174C792.809 332.221 792.809 333.934 792.38 335.041C792.137 335.793 791.749 336.49 791.238 337.093C790.849 337.479 790.438 337.842 790.007 338.181C789.525 338.502 790.346 338.556 796.61 338.573C800.537 338.573 803.749 338.574 803.749 338.449C803.525 338.221 803.258 338.039 802.964 337.913C802.363 337.529 801.866 337.002 801.518 336.379C801.065 335.472 800.747 334.504 800.572 333.506C800.376 332.346 800.269 325.744 800.269 314.111C800.269 302.477 800.376 295.875 800.572 294.715C800.747 293.711 801.065 292.737 801.518 291.825C801.721 291.398 802.006 291.016 802.357 290.7C802.672 290.574 802.962 290.392 803.214 290.165C803.874 289.648 803.874 289.648 796.682 289.648C790.292 289.648 789.543 289.648 790.007 290.04C790.471 290.433 790.846 290.736 791.238 291.111C791.747 291.722 792.135 292.424 792.38 293.181C792.737 294.34 792.809 295.714 792.737 302.102V309.543H765.967V302.62C765.744 299.695 765.87 296.754 766.341 293.859C766.519 292.711 767.086 291.659 767.948 290.879L769.108 289.719H755.222L756.329 290.772Z" fill="#006837"/>
<path fill-rule="evenodd" clip-rule="evenodd" d="M864.876 289.719C864.876 289.719 865.483 290.433 866.233 291.218C867.117 292.223 867.867 293.338 868.464 294.537C868.963 295.571 870.249 299.104 871.284 302.405C872.319 305.706 873.354 308.865 873.55 309.454C873.747 310.042 874.71 313.022 875.692 316.109L878.28 324.21C878.726 325.601 879.511 327.992 880.064 329.563C880.523 330.951 881.054 332.315 881.653 333.649C882.138 334.522 882.739 335.326 883.438 336.04C884.557 337.081 885.75 338.041 887.007 338.912L889.541 340.697L890.309 338.27C890.737 336.932 891.237 335.29 891.433 334.701C891.629 334.113 892.379 331.579 893.111 329.241L896.091 319.66C897.002 316.733 898.483 311.916 899.393 308.954C900.303 305.992 901.178 303.601 901.178 303.601C901.52 304.204 901.772 304.853 901.927 305.528C902.249 306.581 903.105 309.239 903.819 311.434C904.533 313.629 905.872 317.768 906.782 320.605L909.37 328.724C909.882 330.348 910.477 331.944 911.154 333.506C911.671 334.595 912.358 335.595 913.189 336.468C914.257 337.401 915.384 338.265 916.562 339.055C917.335 339.621 918.152 340.122 919.007 340.554C919.132 340.554 919.293 340.358 919.364 340.09C919.435 339.822 920.488 336.521 921.684 332.578C922.88 328.635 924.914 322.069 926.217 317.822C927.52 313.575 929.555 306.991 930.733 303.191C931.911 299.39 933.303 294.858 933.838 293.127C934.218 292.065 934.504 290.973 934.695 289.862C934.695 289.862 932.071 289.862 929.002 289.862C925.289 289.862 923.647 290.022 923.951 290.183C924.404 290.402 924.834 290.665 925.236 290.968C925.668 291.293 926.053 291.678 926.378 292.11C926.673 292.671 926.884 293.272 927.003 293.894C927.118 294.842 927.118 295.801 927.003 296.749C926.639 298.603 926.163 300.432 925.575 302.227L923.183 309.81C922.541 311.898 921.506 315.163 920.899 317.197L918.49 324.995C917.776 327.332 917.151 329.277 917.08 329.331C916.786 328.843 916.569 328.314 916.437 327.76C916.134 326.85 915.081 323.585 914.099 320.516C913.118 317.447 911.975 313.914 911.565 312.665C911.154 311.416 910.012 307.901 909.031 304.832C908.049 301.763 906.996 298.516 906.71 297.695C906.348 296.606 906.045 295.498 905.8 294.376C905.589 293.347 905.464 292.303 905.425 291.254V289.844H895.038L896.145 290.79C896.75 291.307 897.231 291.954 897.555 292.681C897.779 293.663 897.84 294.676 897.733 295.679C897.349 298.452 896.679 301.179 895.734 303.815C894.699 307.187 892.932 312.915 891.79 316.573C890.648 320.231 889.309 324.638 888.774 326.351C888.504 327.424 888.133 328.47 887.667 329.473C887.218 328.559 886.86 327.603 886.597 326.619C886.097 325.048 885.133 322.033 884.437 319.91L881.403 310.47C880.404 307.384 879.244 303.744 878.797 302.352C878.351 300.96 877.512 298.391 876.923 296.642C876.362 295.02 875.962 293.346 875.728 291.646L875.585 289.862H870.231C867.268 289.63 864.876 289.666 864.876 289.719Z" fill="#006837"/>
<path fill-rule="evenodd" clip-rule="evenodd" d="M994.733 289.987C995.186 290.305 995.61 290.664 996 291.057C996.529 291.683 996.935 292.404 997.196 293.181C997.606 294.43 997.66 296.339 997.749 312.647C997.749 324.388 997.749 331.472 997.553 332.846C997.408 333.972 997.12 335.075 996.696 336.129C996.391 336.772 995.931 337.33 995.358 337.753C994.947 337.985 994.608 338.27 994.608 338.377C999.143 338.639 1003.69 338.639 1008.23 338.377C1008.03 338.101 1007.77 337.884 1007.46 337.753C1006.86 337.278 1006.38 336.666 1006.07 335.968L1005.42 334.666V314.592C1005.42 296.499 1005.42 294.376 1005.78 293.181C1006 292.46 1006.34 291.784 1006.8 291.182C1007.17 290.794 1007.59 290.441 1008.03 290.129C1008.65 289.701 1008.35 289.683 1001.48 289.683C995.715 289.665 994.322 289.737 994.733 289.987Z" fill="#006837"/>
<path fill-rule="evenodd" clip-rule="evenodd" d="M1021.4 290.772C1022.17 291.465 1022.73 292.371 1023 293.377C1023.38 294.715 1023.43 297.07 1023.36 314.664V334.452L1022.63 335.933C1022.3 336.628 1021.82 337.238 1021.22 337.717C1020.86 337.913 1020.56 338.181 1020.56 338.306C1022.82 338.513 1025.09 338.584 1027.36 338.52H1034.16L1033 337.36C1032.1 336.575 1031.53 335.489 1031.39 334.309C1031.02 332.685 1030.96 330.009 1030.96 314.075C1030.96 301.585 1030.96 295.286 1031.27 294.323C1031.44 293.497 1031.71 292.694 1032.07 291.932C1032.41 291.299 1032.87 290.736 1033.43 290.272L1034.3 289.594H1020.27L1021.4 290.772Z" fill="#006837"/>
<path fill-rule="evenodd" clip-rule="evenodd" d="M692.329 309.543C692.084 308.271 691.768 307.014 691.383 305.778C691.001 304.685 690.548 303.618 690.027 302.584C689.428 301.469 688.754 300.396 688.01 299.372C686.982 298.04 685.848 296.793 684.619 295.643C683.349 294.458 681.975 293.389 680.514 292.449C679.318 291.773 678.078 291.177 676.802 290.665C675.785 290.254 674.089 289.683 673.072 289.398C670.951 288.886 668.775 288.64 666.594 288.666C664.024 288.666 661.561 288.666 661.132 288.666C660.704 288.666 659.348 289.023 658.277 289.309C656.843 289.684 655.436 290.155 654.065 290.718C652.556 291.399 651.1 292.192 649.71 293.091C648.291 294.068 646.959 295.167 645.73 296.375C644.75 297.356 643.826 298.393 642.964 299.479C642.164 300.612 641.454 301.805 640.84 303.048C640.138 304.483 639.541 305.968 639.055 307.491C638.471 309.609 638.259 311.813 638.431 314.004C638.267 316.193 638.472 318.395 639.037 320.516C639.525 322.061 640.121 323.57 640.822 325.031C641.529 326.479 642.359 327.864 643.303 329.17C644.179 330.283 645.134 331.333 646.158 332.311C647.13 333.17 648.149 333.974 649.21 334.719C650.031 335.273 651.316 336.04 652.066 336.504C652.815 336.968 654.083 337.432 654.868 337.735C655.653 338.038 657.331 338.538 658.58 338.859C660.807 339.381 663.098 339.573 665.38 339.43C667.664 339.587 669.959 339.382 672.18 338.823C673.632 338.431 675.062 337.961 676.463 337.414C677.606 336.931 678.72 336.383 679.801 335.772C680.532 335.344 681.799 334.47 682.602 333.863C683.69 332.996 684.722 332.06 685.69 331.062C686.665 330.026 687.566 328.923 688.385 327.761C689.693 325.781 690.737 323.64 691.49 321.391C692.232 318.836 692.652 316.198 692.74 313.54C692.705 312.199 692.567 310.863 692.329 309.543ZM684.173 317.429C684.031 318.729 683.798 320.017 683.477 321.284C683.151 322.331 682.757 323.356 682.299 324.353C681.786 325.415 681.189 326.436 680.514 327.404C678.937 329.486 676.912 331.187 674.589 332.382C673.357 332.976 672.073 333.454 670.752 333.809C669.181 334.197 667.569 334.389 665.951 334.38C664.475 334.406 663.001 334.256 661.561 333.934C660.421 333.616 659.306 333.216 658.223 332.739C655.734 331.576 653.538 329.869 651.798 327.743C650.725 326.351 649.793 324.857 649.014 323.282C648.284 321.785 647.687 320.226 647.229 318.625C646.818 316.793 646.656 314.915 646.747 313.04C646.675 311.24 646.85 309.439 647.265 307.687C647.621 306.466 648.069 305.273 648.603 304.118C649.188 302.864 649.894 301.668 650.709 300.55C651.493 299.546 652.378 298.625 653.351 297.802C654.134 297.164 654.95 296.568 655.796 296.018C656.649 295.562 657.532 295.162 658.437 294.822C659.602 294.424 660.795 294.114 662.007 293.894C663.131 293.716 664.613 293.537 665.291 293.52C666.405 293.564 667.514 293.689 668.61 293.894C669.723 294.103 670.821 294.389 671.894 294.751C672.853 295.136 673.784 295.589 674.678 296.107C675.784 296.807 676.818 297.614 677.766 298.516C678.628 299.362 679.421 300.275 680.14 301.246C680.79 302.235 681.386 303.26 681.924 304.315C682.522 305.543 683.012 306.82 683.388 308.133C683.76 309.576 684.034 311.043 684.209 312.523C684.366 314.155 684.354 315.799 684.173 317.429Z" fill="#006837"/>
<path fill-rule="evenodd" clip-rule="evenodd" d="M533.864 338.11C533.094 337.513 532.366 336.863 531.687 336.165C530.687 335.153 529.861 333.984 529.242 332.703C528.724 331.615 527.457 328.813 526.565 326.476L522.031 315.163C520.443 311.291 518.623 306.813 517.962 305.189C517.302 303.565 516.535 301.727 516.285 301.067C516.035 300.407 514.875 297.499 513.732 294.751L511.662 289.63H505.755C501.311 289.63 499.99 289.63 500.401 289.933C500.808 290.174 501.191 290.455 501.543 290.772C502.025 291.2 502.132 291.593 502.132 292.752C502.132 293.912 501.275 296.321 494.993 311.934C491.102 321.676 487.497 330.615 486.98 331.793C486.4 333.054 485.688 334.251 484.856 335.362C484.219 336.18 483.461 336.896 482.607 337.485C482.193 337.667 481.827 337.942 481.536 338.288C483.755 338.483 485.984 338.548 488.211 338.484C491.87 338.484 494.868 338.484 494.868 338.377C494.589 338.11 494.269 337.887 493.922 337.717C493.339 337.351 492.874 336.824 492.584 336.2C492.259 335.494 492.214 334.69 492.459 333.952C492.601 333.238 493.761 329.83 495.046 326.387L497.349 320.124H506.826H516.302L517.088 322.122C517.516 323.211 518.748 326.476 519.854 329.259C520.663 331.236 521.325 333.27 521.835 335.344C521.827 335.656 521.749 335.962 521.607 336.24C521.465 336.518 521.262 336.761 521.014 336.95C520.683 337.298 520.273 337.561 519.818 337.717C519.718 337.72 519.619 337.746 519.529 337.793C519.44 337.839 519.362 337.904 519.301 337.985C521.797 338.317 524.32 338.401 526.832 338.235C534.06 338.627 534.525 338.52 533.864 338.11ZM506.843 314.575C502.864 314.575 499.58 314.575 499.526 314.575C499.676 313.862 499.903 313.168 500.204 312.505L502.703 306.153L505.576 298.89C505.913 297.928 506.318 296.992 506.79 296.089C506.79 296.089 507.432 297.606 508.111 299.372L510.556 305.617C511.216 307.295 512.055 309.454 512.34 310.399L513.5 313.326L514 314.521L506.843 314.575Z" fill="#006837"/>
<path fill-rule="evenodd" clip-rule="evenodd" d="M986.595 337.11C985.651 336.292 984.822 335.35 984.132 334.309C983.018 332.332 982.04 330.281 981.205 328.171C980.223 325.78 978.563 321.658 977.493 319.035L972.727 307.33C971.193 303.512 969.158 298.319 968.016 295.75C966.874 293.181 965.981 290.772 965.82 290.397L965.553 289.666H953.774L954.684 290.272C955.178 290.61 955.603 291.04 955.933 291.539C956.169 292.102 956.243 292.72 956.147 293.323C956.147 293.912 952.578 302.887 948.437 313.272C944.297 323.657 940.531 332.775 940.138 333.56C939.596 334.529 938.937 335.428 938.175 336.236C937.523 336.873 936.831 337.469 936.105 338.02L935.302 338.591H949.187L948.116 337.985C947.474 337.615 946.944 337.078 946.581 336.432C946.386 336.091 946.268 335.712 946.234 335.321C946.2 334.93 946.252 334.536 946.385 334.166C946.546 333.453 947.616 330.294 948.776 327.154C949.936 324.014 950.954 321.159 951.061 320.838L951.221 320.249H960.823C964.02 320.122 967.221 320.206 970.407 320.499C970.407 320.659 971.55 323.71 972.942 327.297C974.334 330.883 975.547 334.238 975.636 334.737C975.726 335.269 975.726 335.812 975.636 336.343C975.332 336.967 974.839 337.479 974.227 337.806L972.977 338.591H980.705C983.194 338.676 985.685 338.604 988.165 338.377L986.595 337.11ZM960.698 314.646C956.647 314.646 953.327 314.646 953.327 314.521C953.433 314.178 953.564 313.844 953.72 313.522C953.934 313.04 954.88 310.667 955.826 308.258C956.772 305.849 958.235 302.102 959.092 299.943C959.559 298.646 960.113 297.382 960.752 296.16C960.752 296.16 962.001 299.176 963.393 302.727L966.784 311.452C967.266 312.683 967.766 313.914 967.873 314.164C967.98 314.414 967.605 314.646 960.698 314.646Z" fill="#006837"/>
<path fill-rule="evenodd" clip-rule="evenodd" d="M864.698 337.985C863.995 337.432 863.327 336.836 862.699 336.2C861.906 335.345 861.217 334.398 860.646 333.381C860.182 332.507 859.236 330.419 858.54 328.724L854.971 320.088L850.759 309.721L847.083 300.675C846.119 298.337 844.78 295.036 844.084 293.359C843.388 291.682 842.781 290.147 842.692 289.969C842.603 289.79 841.139 289.63 836.678 289.63H830.788L831.698 290.236C832.193 290.574 832.617 291.004 832.948 291.503C833.171 292.07 833.232 292.688 833.126 293.288C833.126 293.948 829.557 303.048 825.345 313.504C821.133 323.96 817.313 333.131 816.831 334.006C816.255 334.927 815.572 335.777 814.797 336.539C814.231 337.068 813.636 337.562 813.012 338.02C812.387 338.449 812.673 338.466 819.169 338.466C825.666 338.466 825.934 338.466 825.309 338.02C824.846 337.699 824.411 337.341 824.006 336.95C823.435 336.415 823.381 336.165 823.488 334.702C823.948 332.215 824.678 329.785 825.666 327.457C826.79 324.388 827.897 321.498 828.111 321.016L828.503 320.159H847.332L848.564 323.407C849.26 325.191 850.473 328.403 851.277 330.544C852.08 332.685 852.829 334.791 852.919 335.273C853.079 336.022 852.919 336.254 852.205 337.057C851.766 337.485 851.295 337.879 850.795 338.235C850.366 338.484 851.866 338.538 857.934 338.556H865.554L864.698 337.985ZM837.659 314.575H830.52L832.519 309.525C833.608 306.741 835.25 302.637 836.089 300.407C836.593 299.019 837.189 297.666 837.873 296.357C837.873 296.357 839.051 298.962 840.283 302.138C841.514 305.314 843.103 309.418 843.852 311.238C844.315 312.346 844.72 313.478 845.066 314.628C845.066 314.628 841.693 314.61 837.713 314.575H837.659Z" fill="#006837"/>
<path fill-rule="evenodd" clip-rule="evenodd" d="M1.49903 1.96288C2.30017 2.69441 3.1664 3.35134 4.0869 3.92558C5.51467 4.88911 9.8694 7.94026 13.7958 10.7059L28.484 21.1977C32.6424 24.1954 39.7813 29.4769 44.3502 32.9028C48.9191 36.3287 55.3976 41.2534 58.7351 43.8585C62.0725 46.4636 68.8902 51.8166 73.8695 55.7956C78.8489 59.7746 86.1841 65.6807 90.1819 68.9281C94.1796 72.1756 100.248 77.1717 103.674 80.0266C107.101 82.8815 111.099 86.2003 112.598 87.4314C114.097 88.6626 118.327 92.3027 122.093 95.5501C125.858 98.7976 131.409 103.633 134.425 106.256L143.028 113.964L146.294 116.944L150.006 120.334L155.199 125.116C156.092 125.955 157.216 126.9 157.698 127.382C158.18 127.864 158.715 128.06 158.876 127.953C159.036 127.846 160.072 127.168 161.125 126.437C162.178 125.705 165.586 122.69 168.692 119.745C171.797 116.801 176.527 112.323 179.239 109.825C181.952 107.327 186.86 102.794 190.198 99.7968C193.535 96.7992 198.407 92.4633 201.031 90.1794C203.655 87.8954 208.17 83.9699 211.257 81.454C214.345 78.9381 218.807 75.191 221.341 73.1569C223.875 71.1228 228.676 67.3401 232.049 64.735C235.423 62.1299 240.277 58.4185 242.883 56.4558C245.488 54.493 250.843 50.5854 254.751 47.7305C258.66 44.8756 265.138 40.2364 269.136 37.3993C273.134 34.5623 278.666 30.6368 281.451 28.7097C284.235 26.7827 290.856 22.3398 296.192 18.8247C301.529 15.3096 307.365 11.5268 309.185 10.4026C311.005 9.27853 313.022 7.95815 313.665 7.51207L314.843 6.69124L314.753 4.24674V1.8201H158.215C71.9241 1.76657 1.48118 1.83798 1.49903 1.96288Z" fill="#006837"/>
<path fill-rule="evenodd" clip-rule="evenodd" d="M309.382 24.2488C306.526 26.3721 300.993 30.5831 297.085 33.5986C293.176 36.6141 287.626 40.9321 284.77 43.2161C281.915 45.5 277.631 48.8901 275.418 50.7637C273.205 52.6372 269.404 55.7776 267.119 57.7225C264.835 59.6674 261.23 62.79 259.106 64.6635C256.982 66.5371 254.519 68.7496 253.627 69.5704L247.684 75.0304C245.328 77.2073 239.581 82.7743 234.941 87.5206C230.301 92.2669 224.072 98.5476 221.145 101.706C218.218 104.864 214.649 108.736 213.256 110.288C211.864 111.841 208.795 115.285 206.439 117.961C204.083 120.637 200.781 124.509 198.997 126.454L193.5 132.949L185.95 142.103C183.077 145.671 177.865 152.059 174.367 156.377C170.869 160.695 165.783 167.208 163.088 170.652C160.393 174.095 156.449 179.341 154.343 182.178C152.237 185.015 148.989 189.476 147.061 192.081C145.134 194.686 141.993 199.219 139.922 202.127C137.852 205.035 134.675 209.782 132.783 212.619C130.892 215.456 128.036 219.756 126.43 222.361C124.823 224.966 122.396 228.802 121.076 231.086C119.755 233.37 117.203 237.546 115.543 240.401C113.883 243.255 111.295 247.77 109.814 250.446C108.333 253.123 106.245 257.12 104.995 259.368C103.746 261.616 101.122 266.88 98.9629 271.18C96.8034 275.48 94.1977 280.815 93.1447 283.01C92.0917 285.205 90.1999 289.326 88.897 292.164C87.5942 295.001 86.2021 298.07 85.7916 298.962C85.3811 299.854 83.5785 303.976 81.7938 308.133C80.0091 312.29 77.921 317.055 77.1893 318.839C76.4575 320.623 74.3337 325.78 72.4954 330.294L69.1401 338.502H89.718L96.4642 325.12C100.159 317.768 104.067 310.096 105.156 308.062C106.245 306.028 108.261 302.298 109.671 299.782C111.081 297.267 113.74 292.538 115.614 289.291C117.488 286.043 120.397 281.19 122.057 278.585C123.717 275.98 126.323 271.787 127.84 269.431C129.357 267.076 131.409 263.954 132.391 262.49C133.372 261.027 135.817 257.494 137.745 254.657C139.672 251.82 142.581 247.77 144.081 245.736C145.58 243.702 148.989 239.062 151.612 235.547C154.236 232.032 159.322 225.359 162.909 220.72C166.497 216.08 171.583 209.639 174.189 206.445C176.795 203.251 180.81 198.273 183.113 195.507C185.415 192.742 189.127 188.37 191.429 185.604C193.732 182.839 195.659 180.662 195.748 180.59L197.836 178.217C198.889 177.004 202.191 173.31 205.172 170.045C208.152 166.78 212.757 161.855 215.416 159.143C218.075 156.431 220.27 154.111 220.324 153.986C220.378 153.861 224.25 150.096 228.926 145.636C233.602 141.175 238.314 136.714 239.385 135.786L242.49 132.985C243.133 132.414 245.738 130.148 248.273 127.971C250.807 125.794 254.805 122.386 257.196 120.423C259.588 118.461 264.103 114.803 267.28 112.287C270.457 109.771 275.276 106.024 277.988 103.99C280.701 101.956 286.626 97.5662 291.195 94.2474C295.764 90.9286 302.939 85.8433 307.133 82.917L314.771 77.5641V49.0151C314.771 33.2774 314.771 20.4661 314.682 20.4661C314.593 20.4661 312.237 22.1076 309.382 24.2488Z" fill="#006837"/>
<path fill-rule="evenodd" clip-rule="evenodd" d="M0.892578 72.4432V88.502L2.89146 89.8402C3.98014 90.5718 8.47767 93.6765 12.9038 96.7455C17.3299 99.8145 22.3093 103.33 24.0047 104.579C25.7002 105.828 31.0544 109.771 35.8909 113.375C40.7275 116.98 48.0806 122.547 52.2212 125.866C56.3618 129.184 63.4471 134.626 67.9267 138.213C72.4064 141.799 78.4209 146.653 81.2586 148.919L87.4873 154.111L91.6635 157.68C93.4482 159.143 96.3752 161.73 98.3205 163.443L103.675 168.154L106.798 170.973L111.099 174.827C112.741 176.272 114.49 177.843 114.99 178.396L115.882 179.216L119.577 174.417C121.611 171.776 125.074 167.422 127.269 164.728C129.464 162.034 132.73 158.126 134.515 156.02C136.299 153.915 138.084 151.792 138.548 151.31L143.064 146.296C144.536 144.868 145.809 143.247 146.847 141.478C146.847 141.05 146.383 140.515 145.437 139.837C144.491 139.159 142.707 137.91 141.065 136.786C139.423 135.661 133.676 131.825 128.268 128.239C122.86 124.652 117.042 120.852 115.365 119.781L109.475 116.034L102.336 111.609C99.9803 110.164 94.4299 106.845 90.0216 104.24C85.6133 101.635 79.3132 97.9232 75.9401 96.014L65.8564 90.2506L56.8079 85.1653C54.0237 83.613 48.6874 80.6867 44.9395 78.6704C41.1916 76.6541 36.4442 74.1025 34.4097 73.0498C32.3751 71.997 25.8965 68.714 20.0248 65.7877C14.1531 62.8615 7.53175 59.5961 5.2473 58.5256C2.96286 57.455 1.10676 56.5627 1.01752 56.5627C0.928286 56.5627 0.892578 63.6287 0.892578 72.4432Z" fill="#006837"/>
<path fill-rule="evenodd" clip-rule="evenodd" d="M310.577 100.796C308.382 102.759 305.098 105.703 303.313 107.362L295.889 114.16C293.605 116.266 286.198 123.51 279.398 130.219C272.598 136.928 264.942 144.833 262.354 147.688C259.766 150.543 255.911 154.825 253.805 157.287C251.699 159.75 248.362 163.711 246.363 166.209C244.364 168.707 241.205 172.579 239.349 174.934C237.493 177.289 233.888 182.071 231.353 185.426C228.819 188.78 225.821 192.938 224.679 194.526C223.536 196.114 222.216 197.987 221.698 198.666C221.181 199.344 218.271 203.626 215.184 208.176C212.096 212.726 208.188 218.578 206.492 221.184C204.797 223.789 201.531 228.838 199.246 232.407C196.962 235.975 193.339 241.775 191.197 245.272C189.056 248.769 186.611 252.748 185.843 254.193C185.076 255.639 182.863 259.225 181.078 262.312C179.293 265.399 176.83 269.788 175.599 272.072L172.172 278.424C171.512 279.638 169.691 283.224 168.103 286.382C166.515 289.541 164.301 294.037 163.177 296.392C162.053 298.748 161.125 300.693 161.125 300.746C161.125 300.8 160.607 301.942 159.965 303.316C159.322 304.689 157.305 309.24 155.485 313.468C153.665 317.697 151.701 322.265 151.13 323.639C150.559 325.013 149.096 328.617 147.864 331.615C146.633 334.612 145.526 337.378 145.383 337.753L145.116 338.431L157.43 338.342H169.763L172.547 332.989C174.064 330.027 176.009 326.387 176.83 324.888C177.651 323.389 178.329 322.122 178.329 322.069C178.329 322.015 179.65 319.588 181.256 316.716C182.863 313.843 185.468 309.257 187.021 306.545C188.574 303.833 191.019 299.729 192.375 297.392C193.732 295.054 196.659 290.54 198.729 287.346C200.799 284.152 204.19 279.12 206.278 276.14C208.366 273.161 211.418 269.003 213.06 266.719C214.702 264.435 217.522 260.831 219.324 258.565C221.127 256.299 223.786 252.962 225.25 251.178C226.713 249.394 229.854 245.664 232.228 242.899C234.602 240.133 239.063 235.083 242.151 231.675C245.239 228.267 250.629 222.397 254.144 218.668C257.66 214.939 264.692 207.748 269.761 202.698C274.829 197.648 281.576 191.189 284.752 188.424C287.929 185.658 293.141 181.037 296.317 178.378C299.494 175.719 304.938 171.241 308.4 168.546L314.718 163.568V130.273C314.718 112.073 314.718 97.1916 314.629 97.2095C314.539 97.2273 312.773 98.8332 310.577 100.796Z" fill="#006837"/>
<path fill-rule="evenodd" clip-rule="evenodd" d="M0.303307 157.198V172.258L6.15719 176.593C9.36969 178.967 14.1528 182.589 16.7584 184.623C19.3641 186.657 24.0401 190.404 27.1455 192.92C30.2509 195.436 35.5158 199.843 38.8533 202.68C42.1907 205.517 46.6704 209.371 48.7942 211.245C50.918 213.118 53.6486 215.581 54.8801 216.705C56.1115 217.829 58.4495 219.952 59.913 221.415C61.3765 222.879 64.9637 226.269 67.6944 228.945L72.6559 233.816L76.7251 227.928C78.956 224.699 82.3113 219.917 84.1852 217.329C86.0592 214.742 89.6465 209.853 92.1451 206.516C93.845 204.41 95.3672 202.166 96.6961 199.807C96.6961 199.379 95.6253 198.416 92.9125 196.417C90.8422 194.883 87.719 192.617 85.97 191.368C84.2209 190.119 79.9554 187.192 76.4752 184.855C72.995 182.517 67.7479 179.109 64.821 177.272C61.8941 175.434 55.8974 171.776 51.4713 169.153C47.0451 166.53 41.459 163.229 38.9782 161.855C36.4974 160.481 32.2498 158.108 29.4835 156.591C26.7171 155.075 20.1672 151.756 14.938 149.186C9.70876 146.617 4.22968 144.012 2.85545 143.352L0.267578 142.156L0.303307 157.198Z" fill="#006837"/>
<path fill-rule="evenodd" clip-rule="evenodd" d="M314.129 191.029C313.558 191.707 310.827 194.99 308.025 198.291C305.223 201.592 301.047 206.713 298.691 209.639C296.335 212.565 292.819 217.08 290.856 219.685C288.893 222.29 285.663 226.679 283.717 229.445C281.772 232.211 277.917 237.813 275.24 241.935C272.563 246.057 269.118 251.303 267.601 253.747C266.084 256.192 262.658 261.777 260.034 266.237C257.411 270.698 253.627 276.943 251.664 280.405C249.701 283.866 246.934 288.755 245.489 291.343C244.043 293.93 241.33 299.14 239.421 302.869C237.511 306.599 234.995 311.791 233.834 314.182C232.674 316.573 230.265 321.73 228.712 325.423C227.16 329.117 225.375 332.917 224.964 333.899C224.554 334.88 223.894 336.45 223.537 337.467L222.858 339.162H248.166L250.7 333.97C252.074 331.097 254.394 326.565 255.84 323.871C257.286 321.176 259.41 317.358 260.57 315.413C261.73 313.468 264.282 309.4 266.281 306.384C268.28 303.369 271.206 299.104 272.795 296.928C274.383 294.751 276.775 291.575 278.149 289.79C279.523 288.006 282.575 284.17 285.056 281.083C287.537 277.996 291.124 273.66 293.052 271.465C294.979 269.271 299.227 264.81 302.511 261.563C305.794 258.315 310.024 254.175 311.952 252.391L315.521 249.162L315.432 219.578V190.012L314.129 191.029Z" fill="#006837"/>
<path fill-rule="evenodd" clip-rule="evenodd" d="M0.00034713 241.239V256.674L3.56979 259.743C5.56868 261.527 8.4599 263.9 10.0126 265.203C11.5653 266.505 15.0456 269.378 17.7405 271.573C20.4354 273.767 25.04 277.496 27.9848 279.852C30.9296 282.207 34.4633 285.026 35.8375 286.097L38.3719 288.042L41.6558 282.832L47.0099 274.267C48.1878 272.483 49.7227 270.02 50.4187 268.914C51.1148 267.808 52.8281 265.203 54.2023 263.097C55.5766 260.992 57.0044 258.779 57.3613 258.19C57.6214 257.796 57.8426 257.378 58.0217 256.941C56.8866 255.984 55.6946 255.096 54.4522 254.283C52.4533 252.909 49.0981 250.714 47.0813 249.411C45.0646 248.109 41.156 245.843 38.479 244.255C35.8019 242.667 32.0718 240.686 30.1979 239.687L23.059 235.975C21.0065 234.923 17.33 233.156 14.9028 232.068L9.54862 229.695C9.06675 229.463 7.76387 228.927 6.72873 228.499C5.69359 228.071 3.71258 227.268 2.35619 226.715L-0.0888672 225.751L0.00034713 241.239Z" fill="#006837"/>
<path fill-rule="evenodd" clip-rule="evenodd" d="M312.951 291.878C311.737 293.466 309.542 296.553 308.061 298.748C306.58 300.942 304.491 304.529 303.242 306.723C301.993 308.918 300.458 312.076 299.673 313.861C298.887 315.645 297.62 318.375 296.889 320.07C296.157 321.765 294.943 324.959 294.176 327.207C293.408 329.456 292.659 331.722 292.498 332.382C292.338 333.042 291.909 334.755 291.534 336.183L290.838 338.77H315.36V313.807C315.36 300.157 315.36 288.987 315.36 289.005C315.36 289.023 314.182 290.308 312.951 291.878Z" fill="#006837"/>
<path fill-rule="evenodd" clip-rule="evenodd" d="M0.588867 320.784V338.395H11.8862L14.2598 334.827C15.5627 332.846 17.9364 328.564 19.614 325.298C21.2917 322.033 23.0407 318.161 23.6118 316.555C24.0889 315.406 24.4419 314.21 24.6648 312.987C24.6648 312.433 24.3257 312.041 23.3976 311.452C22.4696 310.863 21.2916 310.203 20.2208 309.668C19.15 309.132 17.2939 308.187 16.0803 307.669C14.8667 307.152 12.5108 306.278 10.9403 305.742C9.36973 305.207 6.99605 304.493 5.74674 304.172C4.49743 303.851 2.83763 303.512 2.05235 303.405L0.642407 303.191L0.588867 320.784Z" fill="#006837"/>
<path d="M1119.91 240.49H404.24V244.058H1119.91V240.49Z" fill="#006837"/>
</g>
<defs>
<clipPath id="clip0_516_45274">
<rect width="1119.91" height="340.643" fill="white"/>
</clipPath>
</defs>
</svg>
